<?xml version="1.0" encoding="UTF-8"?>
<svg version="1.1" xmlns="http://www.w3.org/2000/svg" width="174" height="141">
<path d="M0 0 C1.12341797 0.00302124 1.12341797 0.00302124 2.26953125 0.00610352 C7.6573994 0.10373524 14.62978875 0.25478875 18.6875 4.3125 C19.0175 3.3225 19.3475 2.3325 19.6875 1.3125 C24.6375 1.3125 29.5875 1.3125 34.6875 1.3125 C34.6875 8.9025 34.6875 16.4925 34.6875 24.3125 C20.87775261 24.91819068 20.87775261 24.91819068 17.70703125 23.3046875 C16.35796206 21.98331181 15.02279424 20.64779424 13.6875 19.3125 C7.84124162 16.70432075 2.90642655 15.82536539 -3.3125 17.3125 C-0.37983978 19.26760681 1.58626043 19.9519608 4.94921875 20.828125 C5.98626953 21.11042969 7.02332031 21.39273438 8.09179688 21.68359375 C10.25849241 22.26361338 12.42775504 22.83413758 14.59960938 23.39453125 C23.09130261 25.73381178 29.34730237 28.92560036 34.6875 36.0625 C37.31679903 40.73284811 37.57742075 45.0810967 36.6875 50.3125 C34.94056829 55.90463335 31.85794236 60.37702305 26.6875 63.3125 C16.01835898 67.96267043 5.4762505 67.12440861 -5.3125 63.3125 C-6.65874052 62.67229793 -7.99733487 62.01432826 -9.3125 61.3125 C-9.3125 62.3025 -9.3125 63.2925 -9.3125 64.3125 C-14.2625 64.3125 -19.2125 64.3125 -24.3125 64.3125 C-24.3125 56.3925 -24.3125 48.4725 -24.3125 40.3125 C-13.765625 39.82421875 -13.765625 39.82421875 -10.3125 40.3125 C-8.1796875 42.68359375 -8.1796875 42.68359375 -6.3125 45.3125 C0.57125756 49.24921758 7.0211507 49.84244389 14.6875 48.3125 C8.51033245 45.51450878 2.21509665 43.55528306 -4.28515625 41.65039062 C-10.91158963 39.63480615 -17.15006504 37.32761432 -21.6875 31.8125 C-22.41066406 30.96171875 -22.41066406 30.96171875 -23.1484375 30.09375 C-25.99618658 25.73612053 -25.89087545 20.33610391 -25.3125 15.3125 C-23.69789338 9.86563429 -20.94991867 6.4790918 -16.2890625 3.3203125 C-10.93379226 0.58975969 -5.94598267 -0.04298141 0 0 Z " fill="#000000" transform="translate(68.3125,37.6875)"/>
<path d="M0 0 C6.12264342 5.02623444 9.89517324 10.68005967 10.96264648 18.64404297 C11.67223732 29.96623691 12.04634777 40.88779055 4.625 50.125 C-2.94747399 57.86886744 -12.67723343 60.09990295 -23.1875 60.3125 C-33.73740457 60.18225426 -42.10419558 57.6930305 -50.1875 50.6875 C-58.11617618 41.39962219 -59.06063879 32.99968025 -58.375 21.125 C-57.47765509 12.85931587 -54.1515443 6.42492019 -48 0.8125 C-35.52550088 -9.16709929 -12.85688049 -9.10304677 0 0 Z M-31.375 14.125 C-33.68204098 19.47314045 -33.49508635 24.62065773 -33.25 30.375 C-33.22856934 31.07262451 -33.20713867 31.77024902 -33.18505859 32.48901367 C-32.968634 35.85332179 -32.58964256 37.84259951 -30.53125 40.55078125 C-27.45024335 42.80013937 -25.16599584 43.059638 -21.375 43.125 C-17.05106226 41.57704133 -17.05106226 41.57704133 -14.375 38.125 C-14.05411716 34.34020716 -14.05068435 30.54671831 -14 26.75 C-13.96261719 25.69554687 -13.92523438 24.64109375 -13.88671875 23.5546875 C-13.67922763 17.46769474 -13.67922763 17.46769474 -16.6796875 12.42578125 C-21.91524721 9.89905461 -27.02784744 10.15046052 -31.375 14.125 Z " fill="#000000" transform="translate(163.375,43.875)"/>
<path d="M0 0 C13.53 0 27.06 0 41 0 C42.18681726 3.56045177 42.09689832 6.43808337 42.0625 10.1875 C42.05347656 11.45980469 42.04445312 12.73210938 42.03515625 14.04296875 C42.02355469 15.01878906 42.01195312 15.99460937 42 17 C39.03 17.33 36.06 17.66 33 18 C32.67 27.9 32.34 37.8 32 48 C35.3 48 38.6 48 42 48 C42.02684679 50.64590014 42.04676357 53.29153096 42.0625 55.9375 C42.07087891 56.69224609 42.07925781 57.44699219 42.08789062 58.22460938 C42.09652441 60.14994313 42.05224333 62.07535581 42 64 C41 65 41 65 37.12280273 65.11352539 C35.39305833 65.11336621 33.66330919 65.10766849 31.93359375 65.09765625 C31.02497086 65.0962413 30.11634796 65.09482635 29.18019104 65.09336853 C26.26592779 65.08775193 23.35174019 65.07519665 20.4375 65.0625 C18.46679798 65.05748714 16.49609476 65.05292386 14.52539062 65.04882812 C9.68356441 65.03777711 4.84179505 65.02050138 0 65 C0 59.39 0 53.78 0 48 C2.64 48 5.28 48 8 48 C7.67 38.1 7.34 28.2 7 18 C4.69 17.67 2.38 17.34 0 17 C0 11.39 0 5.78 0 0 Z " fill="#050505" transform="translate(0,38)"/>
<path d="M0 0 C1.9188501 0.00749268 1.9188501 0.00749268 3.87646484 0.01513672 C13.73697287 0.19664918 21.81854393 1.38909867 30.8125 5.5 C31.80636719 5.94601563 32.80023438 6.39203125 33.82421875 6.8515625 C44.32645524 12.09535701 56.06067809 20.6701108 61.25 31.5 C61.435625 32.16 61.62125 32.82 61.8125 33.5 C59.5234375 33.76171875 59.5234375 33.76171875 56.8125 33.5 C55.0390625 31.70703125 55.0390625 31.70703125 53.4375 29.3125 C50.2579017 24.94400842 47.59885261 22.07044863 42.8125 19.5 C40.12584647 20.31069253 40.12584647 20.31069253 37.8125 21.5 C38.3178125 22.19867187 38.823125 22.89734375 39.34375 23.6171875 C39.9934375 24.52726562 40.643125 25.43734375 41.3125 26.375 C42.28703125 27.73238281 42.28703125 27.73238281 43.28125 29.1171875 C44.8125 31.5 44.8125 31.5 44.8125 33.5 C41.899925 33.41433603 40.24451976 32.92089045 38.14453125 30.875 C36.65158228 29.11608625 35.20813738 27.33686981 33.8125 25.5 C32.760625 25.7165625 32.760625 25.7165625 31.6875 25.9375 C28.73693859 26.51478375 25.77979849 27.01695141 22.8125 27.5 C23.3075 30.47 23.3075 30.47 23.8125 33.5 C22.4925 33.5 21.1725 33.5 19.8125 33.5 C19.3175 31.52 19.3175 31.52 18.8125 29.5 C17.636875 29.7475 17.636875 29.7475 16.4375 30 C11.87283858 30.62960847 7.41177399 30.58180527 2.8125 30.5 C2.8125 31.49 2.8125 32.48 2.8125 33.5 C1.1625 33.5 -0.4875 33.5 -2.1875 33.5 C-2.1875 32.51 -2.1875 31.52 -2.1875 30.5 C-2.83976562 30.51160156 -3.49203125 30.52320312 -4.1640625 30.53515625 C-8.9636914 30.58470994 -13.46534685 30.49413751 -18.1875 29.5 C-18.5175 30.82 -18.8475 32.14 -19.1875 33.5 C-20.8375 33.5 -22.4875 33.5 -24.1875 33.5 C-23.5275 31.52 -22.8675 29.54 -22.1875 27.5 C-25.8175 26.84 -29.4475 26.18 -33.1875 25.5 C-34.074375 26.82 -34.96125 28.14 -35.875 29.5 C-37.38671875 31.75 -37.38671875 31.75 -39.1875 33.5 C-41.89453125 33.75 -41.89453125 33.75 -44.1875 33.5 C-42.63048069 28.82894208 -40.10302627 25.41294315 -37.1875 21.5 C-41.69491152 20.19645336 -41.69491152 20.19645336 -46.03515625 21.5234375 C-49.20411626 24.15611197 -51.56443696 26.93265347 -53.8125 30.375 C-56.1875 33.5 -56.1875 33.5 -59 33.9375 C-59.721875 33.793125 -60.44375 33.64875 -61.1875 33.5 C-57.07129264 21.26143693 -44.14897704 12.80932451 -33.30078125 6.9375 C-22.38520448 1.70549744 -12.06490431 -0.06175761 0 0 Z M-12.1875 4.5 C-12.1875 5.16 -12.1875 5.82 -12.1875 6.5 C-5.5575825 9.00618869 2.09051526 9.96661285 8.98828125 7.82421875 C10.76793673 6.97389788 10.76793673 6.97389788 12.8125 5.5 C12.8125 5.17 12.8125 4.84 12.8125 4.5 C0.297036 3.48490005 0.297036 3.48490005 -12.1875 4.5 Z M-24.99682617 8.12084961 C-25.65142822 8.46124268 -26.30603027 8.80163574 -26.98046875 9.15234375 C-27.69267578 9.51650391 -28.40488281 9.88066406 -29.13867188 10.25585938 C-29.87666016 10.64580078 -30.61464844 11.03574219 -31.375 11.4375 C-32.12458984 11.82357422 -32.87417969 12.20964844 -33.64648438 12.60742188 C-35.49810689 13.56271757 -37.34342452 14.53021577 -39.1875 15.5 C-37.51261472 17.23647948 -37.51261472 17.23647948 -35.1875 18.5 C-31.01346861 17.54246776 -28.12949191 15.06537998 -24.875 12.375 C-23.99199219 11.65054687 -23.10898437 10.92609375 -22.19921875 10.1796875 C-21.53535156 9.62539062 -20.87148438 9.07109375 -20.1875 8.5 C-22.99143888 7.22812283 -22.99143888 7.22812283 -24.99682617 8.12084961 Z M20.8125 7.5 C26.81581541 13.61688423 26.81581541 13.61688423 33.8125 18.5 C37.32309123 18.16929536 37.32309123 18.16929536 39.8125 16.5 C34.94980917 11.97266715 27.59578766 7.5 20.8125 7.5 Z M-21.875 14.3125 C-22.82761719 15.02019531 -23.78023437 15.72789063 -24.76171875 16.45703125 C-27.35393398 18.44729832 -27.35393398 18.44729832 -29.1875 21.5 C-25.08416143 23.12225013 -22.39653847 24.05890314 -18.1875 22.5 C-16.05881734 19.7677032 -16.05881734 19.7677032 -14.375 16.4375 C-13.77042969 15.33277344 -13.16585937 14.22804688 -12.54296875 13.08984375 C-12.09566406 12.23519531 -11.64835937 11.38054688 -11.1875 10.5 C-15.94137969 9.97179115 -18.13357329 11.47963257 -21.875 14.3125 Z M13.8125 9.5 C13.1525 10.16 12.4925 10.82 11.8125 11.5 C15.7725 17.44 15.7725 17.44 19.8125 23.5 C26.12733984 22.97434165 26.12733984 22.97434165 28.8125 21.5 C27.32276819 17.68729656 25.22586174 16.08085134 21.875 13.8125 C20.99972656 13.21050781 20.12445313 12.60851562 19.22265625 11.98828125 C16.8119407 10.37238045 16.8119407 10.37238045 13.8125 9.5 Z M-7.1875 12.5 C-9.54608906 14.83336432 -9.54608906 14.83336432 -11.5 17.875 C-12.19738281 18.87273438 -12.89476562 19.87046875 -13.61328125 20.8984375 C-15.3600679 23.27839139 -15.3600679 23.27839139 -15.1875 25.5 C-10.77835217 26.60228696 -6.70367599 26.57654536 -2.1875 26.5 C-2.1875 21.88 -2.1875 17.26 -2.1875 12.5 C-3.8375 12.5 -5.4875 12.5 -7.1875 12.5 Z M3.8125 12.5 C2.47348208 13.61126659 2.47348208 13.61126659 2.71484375 16.44140625 C2.72644531 17.63636719 2.73804688 18.83132812 2.75 20.0625 C2.770625 22.186875 2.79125 24.31125 2.8125 26.5 C9.2475 26.005 9.2475 26.005 15.8125 25.5 C14.21718747 22.0574835 12.463314 18.78969807 10.375 15.625 C9.98441406 15.02945312 9.59382813 14.43390625 9.19140625 13.8203125 C7.64915675 12.03893719 7.64915675 12.03893719 3.8125 12.5 Z " fill="#040404" transform="translate(84.1875,-0.5)"/>
<path d="M0 0 C2.72574271 0.37330824 3.80822085 0.79194601 5.703125 2.84765625 C7.13541667 4.8984375 8.56770833 6.94921875 10 9 C13.63 8.01 17.26 7.02 21 6 C20.505 3.03 20.505 3.03 20 0 C21.875 0.3125 21.875 0.3125 24 1 C24.66 1.99 25.32 2.98 26 4 C28.80435411 4.05632424 31.35146678 3.95814702 34.125 3.6875 C34.87910156 3.62626953 35.63320312 3.56503906 36.41015625 3.50195312 C38.27463438 3.3485467 40.13752498 3.17606541 42 3 C42 2.34 42 1.68 42 1 C43.32 1 44.64 1 46 1 C46 1.66 46 2.32 46 3 C51.28 3.33 56.56 3.66 62 4 C62.33 3.01 62.66 2.02 63 1 C64.65 1 66.3 1 68 1 C67.67 2.65 67.34 4.3 67 6 C70.63 6.99 74.26 7.98 78 9 C78.9075 7.68 79.815 6.36 80.75 5 C82.296875 2.75 82.296875 2.75 84 1 C85.32 1 86.64 1 88 1 C87.42316338 4.89364717 85.45178223 7.01189041 83 10 C82.67 10.99 82.34 11.98 82 13 C85.10540926 14.21081851 85.10540926 14.21081851 89 14 C93.12230943 10.98666064 96.20441296 7.06078272 99.25 3 C100.11625 2.01 100.11625 2.01 101 1 C102.32 1 103.64 1 105 1 C101.03191073 12.63559511 88.74683359 21.67399278 78.25 27.25 C76.18204219 28.20084492 74.09820988 29.11791674 72 30 C70.56914062 30.62261719 70.56914062 30.62261719 69.109375 31.2578125 C60.78330701 34.24933944 52.65335334 34.3836099 43.875 34.4375 C42.69550781 34.44765137 41.51601562 34.45780273 40.30078125 34.46826172 C18.30298103 34.25012711 2.30864545 24.5968093 -12.8359375 9.33203125 C-18 3.76714801 -18 3.76714801 -18 1 C-15.78125 0.703125 -15.78125 0.703125 -13 1 C-10.71875 3.046875 -10.71875 3.046875 -8.5 5.75 C-5.56063886 9.28965321 -2.68042603 12.22672123 1 15 C2.65 14.34 4.3 13.68 6 13 C5.48308594 12.31292969 4.96617188 11.62585938 4.43359375 10.91796875 C3.44552734 9.56638672 3.44552734 9.56638672 2.4375 8.1875 C1.44556641 6.84751953 1.44556641 6.84751953 0.43359375 5.48046875 C-0.27603516 4.25263672 -0.27603516 4.25263672 -1 3 C-0.67 2.01 -0.34 1.02 0 0 Z M28 9 C28.93188881 10.6074328 29.87074435 12.21082799 30.8125 13.8125 C31.33457031 14.70582031 31.85664062 15.59914063 32.39453125 16.51953125 C34.32897662 19.61993977 34.32897662 19.61993977 37 22 C38.65 21.67 40.3 21.34 42 21 C42 16.71 42 12.42 42 8 C37.11494547 7.92708874 32.77885938 7.92199797 28 9 Z M46 8 C46 12.29 46 16.58 46 21 C48.475 21.495 48.475 21.495 51 22 C52.15395711 20.58994275 53.29787466 19.17166542 54.4375 17.75 C55.07558594 16.96109375 55.71367188 16.1721875 56.37109375 15.359375 C57.90505305 13.13752508 58.57130246 11.63256518 59 9 C56.00519083 8.1276588 53.36424089 7.89170234 50.25 7.9375 C48.8475 7.958125 47.445 7.97875 46 8 Z M64 10 C62.66101601 11.95467752 61.32870953 13.9133579 60 15.875 C59.2575 16.96554688 58.515 18.05609375 57.75 19.1796875 C55.82425144 21.73004833 55.82425144 21.73004833 56 24 C62.37970339 23.83641786 66.48385307 20.13679059 71 16 C71.66 15.01 72.32 14.02 73 13 C70.03 12.01 67.06 11.02 64 10 Z M18.4375 11.5 C17.61121094 11.7784375 16.78492188 12.056875 15.93359375 12.34375 C15.29550781 12.5603125 14.65742187 12.776875 14 13 C16.80148118 16.82802866 19.56075766 19.33784091 23.5625 21.875 C24.51253906 22.49117187 25.46257812 23.10734375 26.44140625 23.7421875 C29.02219164 25.38278322 29.02219164 25.38278322 32 24 C30.67726488 20.40241608 29.0805802 17.36262865 26.9375 14.1875 C26.41027344 13.39730469 25.88304687 12.60710937 25.33984375 11.79296875 C24.67662109 10.90544922 24.67662109 10.90544922 24 10 C22.08075164 10 20.23605176 10.89203884 18.4375 11.5 Z M6.3125 17.5 C5.879375 17.995 5.44625 18.49 5 19 C6.55961362 19.96302356 8.12283225 20.92021004 9.6875 21.875 C10.55761719 22.40867188 11.42773438 22.94234375 12.32421875 23.4921875 C14.86362294 24.92315103 17.21959704 26.12391947 20 27 C20.99 26.67 21.98 26.34 23 26 C22.30132812 25.44570312 21.60265625 24.89140625 20.8828125 24.3203125 C19.97273438 23.59585938 19.06265625 22.87140625 18.125 22.125 C17.22007813 21.40570313 16.31515625 20.68640625 15.3828125 19.9453125 C13 18 13 18 11 16 C7.99740483 15.66781808 7.99740483 15.66781808 6.3125 17.5 Z M74.17578125 17.80078125 C73.23089844 18.62964844 72.28601563 19.45851563 71.3125 20.3125 C70.35988281 21.13363281 69.40726562 21.95476562 68.42578125 22.80078125 C66.91914965 24.16669685 65.43799586 25.56200414 64 27 C68.6889493 26.44380331 72.19924267 25.11817327 76.375 22.9375 C77.43460938 22.38964844 78.49421875 21.84179688 79.5859375 21.27734375 C80.38257812 20.85582031 81.17921875 20.43429688 82 20 C82 19.01 82 18.02 82 17 C78.459487 15.72954269 77.41846245 15.73317954 74.17578125 17.80078125 Z M31 29 C31 29.33 31 29.66 31 30 C39.53279474 31.24113378 47.46720526 31.24113378 56 30 C56 29.34 56 28.68 56 28 C51.91975282 26.0640037 48.56146694 25.70215462 44.0625 25.6875 C42.87785156 25.67074219 41.69320312 25.65398437 40.47265625 25.63671875 C36.69910284 26.03147743 34.26208824 27.11247108 31 29 Z " fill="#030303" transform="translate(41,107)"/>
</svg>
