<?xml version="1.0" encoding="UTF-8"?>
<svg id="Layer_2" xmlns="http://www.w3.org/2000/svg" viewBox="0 0 660.98 274.34">
  <defs>
    <style>
      .cls-1 {
        fill: #151741;
      }

      .cls-2 {
        fill: #b0d236;
      }
    </style>
  </defs>
  <g id="Layer_1-2" data-name="Layer_1">
    <g>
      <g id="icon">
        <polygon class="cls-1" points="169.54 163.38 169.54 205.77 40.02 274.34 0 248.15 0 205.77 5.23 209.19 40.02 231.96 169.54 163.38"/>
        <polygon class="cls-2" points="169.54 94.8 169.54 137.18 40.02 205.77 27.35 197.47 22.12 194.05 22.12 194.05 0 179.58 0 137.18 2.97 139.13 5.23 140.6 34.8 159.96 37.77 161.91 40.02 163.38 56.92 154.43 164.32 97.57 169.54 94.8"/>
        <polygon class="cls-1" points="169.54 26.23 169.54 68.6 147.42 80.32 142.19 83.08 40.03 137.18 27.35 128.88 25.1 127.41 22.13 125.47 0 110.98 0 68.63 .02 68.61 5.24 72.03 40.03 94.8 164.3 28.99 169.53 26.22 169.54 26.23"/>
        <polygon class="cls-1" points="169.53 26.22 164.3 28.99 129.56 6.23 22.14 63.08 11.76 68.58 5.24 72.03 .02 68.61 124.28 2.77 129.49 0 134.79 3.47 169.53 26.22"/>
      </g>
      <g id="Text">
        <g id="AAIT">
          <path class="cls-1" d="M255.64,157.7l-.39,5.1-19.03,42.97h-26.09l67.1-144.99,67.1,144.99h-26.09l-18.64-41.79-.59-5.69-21.78-51.01-21.58,50.42ZM245.63,150.83h63.76l4.51,19.62h-72.59l4.32-19.62Z"/>
          <path class="cls-1" d="M404.75,157.7l-.39,5.1-19.03,42.97h-26.09l67.1-144.99,67.1,144.99h-26.09l-18.64-41.79-.59-5.69-21.78-51.01-21.58,50.42ZM394.74,150.83h63.76l4.51,19.62h-72.59l4.32-19.62Z"/>
          <path class="cls-1" d="M540.51,68.43v137.34h-23.35V68.43h23.35Z"/>
          <path class="cls-1" d="M565.23,68.43h95.74v21.39h-36.3v115.95h-23.35v-115.95h-36.1v-21.39Z"/>
        </g>
      </g>
    </g>
  </g>
</svg>