<?xml version="1.0" encoding="UTF-8"?>
<svg id="Layer_2" xmlns="http://www.w3.org/2000/svg" viewBox="0 0 742.13 208.67">
  <defs>
    <style>
      .cls-1 {
        fill: #fff;
      }
    </style>
  </defs>
  <g id="Layer_1-2" data-name="Layer_1">
    <g>
      <g id="Icon">
        <g id="icon">
          <polygon class="cls-1" points="128.96 124.27 128.96 156.51 30.44 208.67 0 188.75 0 156.51 3.98 159.12 30.44 176.44 128.96 124.27"/>
          <polygon class="cls-1" points="128.96 72.11 128.96 104.34 30.44 156.51 20.8 150.2 16.83 147.6 16.82 147.6 0 136.59 0 104.34 2.26 105.83 3.98 106.95 26.47 121.67 28.73 123.15 30.44 124.27 43.29 117.47 124.99 74.21 128.96 72.11"/>
          <polygon class="cls-1" points="128.96 19.95 128.96 52.18 112.13 61.09 108.15 63.2 30.45 104.35 20.81 98.03 19.09 96.91 16.83 95.43 0 84.42 0 52.2 .01 52.19 3.99 54.79 30.45 72.11 124.97 22.05 128.95 19.94 128.96 19.95"/>
          <polygon class="cls-1" points="128.95 19.94 124.97 22.05 98.55 4.74 16.84 47.98 8.95 52.17 3.99 54.79 .01 52.19 94.53 2.11 98.49 0 102.52 2.64 128.95 19.94"/>
        </g>
      </g>
      <g>
        <path class="cls-1" d="M191.96,67.87l.19,1.98-5.69,12.36h-9.95l21.94-45.8,21.94,45.8h-10.01l-5.56-11.99.12-2.22-6.49-15.02-6.49,14.89ZM188.2,65.4h20.77l1.05,6.98h-22.87l1.05-6.98Z"/>
        <path class="cls-1" d="M224.35,59.93c1.28-2.2,2.97-3.88,5.07-5.04,2.1-1.15,4.33-1.73,6.67-1.73s4.5.6,6.33,1.79c1.83,1.2,3.28,2.9,4.33,5.1,1.05,2.2,1.58,4.85,1.58,7.94s-.53,5.69-1.58,7.91c-1.05,2.22-2.49,3.93-4.33,5.13-1.83,1.19-3.95,1.79-6.33,1.79s-4.57-.58-6.67-1.73c-2.1-1.15-3.79-2.84-5.07-5.07-1.28-2.22-1.92-4.9-1.92-8.03s.64-5.86,1.92-8.07ZM231.77,72.38c.7,1.24,1.65,2.18,2.84,2.84,1.19.66,2.47.99,3.83.99,1.19,0,2.36-.32,3.49-.96,1.13-.64,2.06-1.58,2.78-2.81.72-1.24,1.08-2.72,1.08-4.45s-.36-3.21-1.08-4.45c-.72-1.24-1.65-2.17-2.78-2.81-1.13-.64-2.3-.96-3.49-.96-1.36,0-2.64.33-3.83.99s-2.14,1.61-2.84,2.84c-.7,1.24-1.05,2.7-1.05,4.39s.35,3.15,1.05,4.39ZM253.83,34v48.21h-8.03v-48.21h8.03Z"/>
        <path class="cls-1" d="M266.07,53.78l6.98,17.12,6.98-17.12h8.59l-15.57,31.4-15.57-31.4h8.59Z"/>
        <path class="cls-1" d="M298.76,75.5c.41.6.98,1.05,1.7,1.36.72.31,1.51.46,2.38.46,1.24,0,2.35-.26,3.34-.77.99-.51,1.79-1.26,2.41-2.22.62-.97.93-2.13.93-3.49l.99,3.71c0,1.81-.5,3.34-1.51,4.57-1.01,1.24-2.31,2.16-3.89,2.78-1.59.62-3.24.93-4.98.93s-3.42-.35-4.94-1.05c-1.52-.7-2.75-1.72-3.68-3.06-.93-1.34-1.39-2.98-1.39-4.91,0-2.76.97-4.94,2.9-6.55,1.94-1.61,4.68-2.41,8.22-2.41,1.81,0,3.41.18,4.79.56,1.38.37,2.54.82,3.49,1.36.95.54,1.63,1.05,2.04,1.55v3.71c-1.11-.82-2.36-1.44-3.74-1.85-1.38-.41-2.83-.62-4.36-.62-1.24,0-2.25.16-3.03.46-.78.31-1.36.74-1.73,1.3-.37.56-.56,1.25-.56,2.07s.2,1.54.62,2.13ZM292.09,56.37c1.48-.78,3.3-1.53,5.44-2.26,2.14-.72,4.53-1.08,7.17-1.08,2.43,0,4.59.35,6.49,1.05s3.38,1.72,4.45,3.06c1.07,1.34,1.61,2.98,1.61,4.91v20.15h-7.72v-18.48c0-.78-.12-1.45-.37-2.01-.25-.56-.63-1.02-1.14-1.39-.52-.37-1.12-.64-1.82-.8-.7-.16-1.48-.25-2.35-.25-1.32,0-2.58.14-3.77.43-1.19.29-2.22.64-3.09,1.05s-1.5.76-1.92,1.05l-2.97-5.44Z"/>
        <path class="cls-1" d="M341.9,60.57c-.74-.99-1.94-1.48-3.58-1.48-1.11,0-2.1.24-2.97.71-.87.47-1.53,1.14-1.98,2.01-.45.87-.68,1.89-.68,3.09v17.3h-8.03v-28.43h8.03v4.33c.87-1.61,2.01-2.83,3.43-3.68,1.42-.85,3.14-1.27,5.16-1.27,3.38,0,5.89.96,7.54,2.87,1.65,1.92,2.47,4.58,2.47,8v18.17h-8.28v-17.3c0-1.89-.37-3.34-1.11-4.33Z"/>
        <path class="cls-1" d="M366.37,72.32c.74,1.24,1.74,2.2,3,2.9,1.25.7,2.65,1.05,4.17,1.05,1.24,0,2.43-.2,3.58-.59,1.15-.39,2.19-.93,3.12-1.61.93-.68,1.64-1.47,2.13-2.38v8.22c-.99.91-2.28,1.62-3.86,2.13-1.59.51-3.43.77-5.53.77-3.01,0-5.72-.62-8.13-1.85-2.41-1.24-4.31-2.98-5.69-5.22s-2.07-4.83-2.07-7.76.69-5.56,2.07-7.79c1.38-2.22,3.28-3.95,5.69-5.19,2.41-1.24,5.12-1.85,8.13-1.85,2.1,0,3.94.26,5.53.77,1.59.52,2.88,1.21,3.86,2.07v8.22c-.49-.91-1.23-1.7-2.19-2.38-.97-.68-2.03-1.21-3.18-1.58-1.16-.37-2.31-.56-3.46-.56-1.52,0-2.92.36-4.17,1.08-1.26.72-2.26,1.7-3,2.94-.74,1.24-1.11,2.66-1.11,4.27s.37,3.09,1.11,4.33Z"/>
        <path class="cls-1" d="M394.74,80.97c-2.31-1.24-4.09-2.96-5.35-5.16-1.26-2.2-1.88-4.81-1.88-7.82s.63-5.68,1.88-7.88c1.26-2.2,3.04-3.91,5.35-5.13,2.31-1.21,5.03-1.82,8.16-1.82s5.8.57,8,1.7c2.2,1.13,3.88,2.78,5.04,4.94,1.15,2.16,1.73,4.77,1.73,7.82,0,.37-.01.76-.03,1.17-.02.41-.05.74-.09.99h-25.46v-4.94h18.48l-2.16,2.84c.16-.25.32-.59.46-1.02.14-.43.22-.79.22-1.08,0-1.4-.26-2.6-.77-3.58-.52-.99-1.25-1.77-2.19-2.35-.95-.58-2.06-.87-3.34-.87-1.57,0-2.87.34-3.92,1.02-1.05.68-1.85,1.69-2.41,3.03-.56,1.34-.86,3-.9,4.98,0,1.9.28,3.5.83,4.82.56,1.32,1.39,2.33,2.5,3.03,1.11.7,2.45,1.05,4.02,1.05,1.77,0,3.28-.34,4.54-1.02,1.26-.68,2.3-1.7,3.12-3.06l6.98,2.16c-1.48,2.68-3.45,4.69-5.9,6.03-2.45,1.34-5.39,2.01-8.81,2.01-3.09,0-5.79-.62-8.1-1.85Z"/>
        <path class="cls-1" d="M423.73,59.93c1.28-2.2,2.97-3.88,5.07-5.04,2.1-1.15,4.32-1.73,6.67-1.73s4.5.6,6.34,1.79c1.83,1.2,3.27,2.9,4.33,5.1,1.05,2.2,1.58,4.85,1.58,7.94s-.53,5.69-1.58,7.91c-1.05,2.22-2.49,3.93-4.33,5.13-1.83,1.19-3.95,1.79-6.34,1.79s-4.57-.58-6.67-1.73c-2.1-1.15-3.79-2.84-5.07-5.07-1.28-2.22-1.92-4.9-1.92-8.03s.64-5.86,1.92-8.07ZM431.14,72.38c.7,1.24,1.65,2.18,2.84,2.84,1.19.66,2.47.99,3.83.99,1.19,0,2.36-.32,3.49-.96,1.13-.64,2.06-1.58,2.78-2.81.72-1.24,1.08-2.72,1.08-4.45s-.36-3.21-1.08-4.45c-.72-1.24-1.65-2.17-2.78-2.81-1.13-.64-2.3-.96-3.49-.96-1.36,0-2.64.33-3.83.99-1.2.66-2.14,1.61-2.84,2.84-.7,1.24-1.05,2.7-1.05,4.39s.35,3.15,1.05,4.39ZM453.2,34v48.21h-8.03v-48.21h8.03Z"/>
        <path class="cls-1" d="M491.03,67.87l.19,1.98-5.69,12.36h-9.95l21.94-45.8,21.94,45.8h-10.01l-5.56-11.99.12-2.22-6.49-15.02-6.49,14.89ZM487.26,65.4h20.77l1.05,6.98h-22.87l1.05-6.98Z"/>
        <path class="cls-1" d="M540.65,60.57c-.74-.99-1.94-1.48-3.58-1.48-1.11,0-2.1.24-2.97.71-.87.47-1.53,1.14-1.98,2.01-.45.87-.68,1.89-.68,3.09v17.3h-8.03v-28.43h8.03v4.33c.86-1.61,2.01-2.83,3.43-3.68,1.42-.85,3.14-1.27,5.16-1.27,3.38,0,5.89.96,7.54,2.87,1.65,1.92,2.47,4.58,2.47,8v18.17h-8.28v-17.3c0-1.89-.37-3.34-1.11-4.33Z"/>
        <path class="cls-1" d="M564.26,75.5c.41.6.98,1.05,1.7,1.36.72.31,1.51.46,2.38.46,1.24,0,2.35-.26,3.34-.77.99-.51,1.79-1.26,2.41-2.22.62-.97.93-2.13.93-3.49l.99,3.71c0,1.81-.5,3.34-1.51,4.57-1.01,1.24-2.31,2.16-3.89,2.78-1.59.62-3.24.93-4.98.93s-3.42-.35-4.95-1.05c-1.52-.7-2.75-1.72-3.68-3.06-.93-1.34-1.39-2.98-1.39-4.91,0-2.76.97-4.94,2.9-6.55,1.94-1.61,4.68-2.41,8.22-2.41,1.81,0,3.41.18,4.79.56,1.38.37,2.54.82,3.49,1.36.95.54,1.63,1.05,2.04,1.55v3.71c-1.11-.82-2.36-1.44-3.74-1.85-1.38-.41-2.83-.62-4.36-.62-1.24,0-2.25.16-3.03.46-.78.31-1.36.74-1.73,1.3-.37.56-.56,1.25-.56,2.07s.2,1.54.62,2.13ZM557.59,56.37c1.48-.78,3.3-1.53,5.44-2.26,2.14-.72,4.53-1.08,7.17-1.08,2.43,0,4.59.35,6.49,1.05s3.38,1.72,4.45,3.06c1.07,1.34,1.61,2.98,1.61,4.91v20.15h-7.72v-18.48c0-.78-.12-1.45-.37-2.01-.25-.56-.63-1.02-1.14-1.39-.52-.37-1.12-.64-1.82-.8-.7-.16-1.48-.25-2.35-.25-1.32,0-2.58.14-3.77.43-1.19.29-2.22.64-3.09,1.05-.87.41-1.5.76-1.92,1.05l-2.97-5.44Z"/>
        <path class="cls-1" d="M598.19,34v48.21h-8.04v-48.21h8.04Z"/>
        <path class="cls-1" d="M614.63,95.8h-8.22l7.17-16.44-11.8-25.59h8.9l9.15,22.62-3.95-.12,8.96-22.5h8.34l-18.54,42.03Z"/>
        <path class="cls-1" d="M650.66,53.78v6.74h-17.55v-6.74h17.55ZM645.72,43.89v38.32h-7.73v-38.32h7.73Z"/>
        <path class="cls-1" d="M655.98,39.53c.95-.84,2.08-1.27,3.4-1.27s2.44.42,3.37,1.27c.93.85,1.39,1.93,1.39,3.24s-.46,2.35-1.39,3.21-2.05,1.3-3.37,1.3-2.45-.43-3.4-1.3c-.95-.87-1.42-1.94-1.42-3.21s.47-2.4,1.42-3.24ZM663.21,53.78v28.43h-7.79v-28.43h7.79Z"/>
        <path class="cls-1" d="M678.84,72.32c.74,1.24,1.74,2.2,3,2.9,1.26.7,2.65,1.05,4.17,1.05,1.24,0,2.43-.2,3.58-.59,1.15-.39,2.19-.93,3.12-1.61.93-.68,1.64-1.47,2.13-2.38v8.22c-.99.91-2.28,1.62-3.86,2.13-1.59.51-3.43.77-5.53.77-3.01,0-5.72-.62-8.13-1.85-2.41-1.24-4.31-2.98-5.68-5.22-1.38-2.25-2.07-4.83-2.07-7.76s.69-5.56,2.07-7.79c1.38-2.22,3.27-3.95,5.68-5.19,2.41-1.24,5.12-1.85,8.13-1.85,2.1,0,3.95.26,5.53.77,1.58.52,2.87,1.21,3.86,2.07v8.22c-.49-.91-1.23-1.7-2.19-2.38-.97-.68-2.03-1.21-3.18-1.58s-2.31-.56-3.46-.56c-1.53,0-2.92.36-4.17,1.08-1.26.72-2.26,1.7-3,2.94-.74,1.24-1.11,2.66-1.11,4.27s.37,3.09,1.11,4.33Z"/>
        <path class="cls-1" d="M708.2,75.5c.41.6.98,1.05,1.7,1.36.72.31,1.51.46,2.38.46,1.24,0,2.35-.26,3.34-.77.99-.51,1.79-1.26,2.41-2.22.62-.97.93-2.13.93-3.49l.99,3.71c0,1.81-.5,3.34-1.51,4.57-1.01,1.24-2.31,2.16-3.89,2.78-1.59.62-3.24.93-4.98.93s-3.42-.35-4.94-1.05c-1.53-.7-2.75-1.72-3.68-3.06-.93-1.34-1.39-2.98-1.39-4.91,0-2.76.97-4.94,2.9-6.55,1.94-1.61,4.68-2.41,8.22-2.41,1.81,0,3.41.18,4.79.56,1.38.37,2.54.82,3.49,1.36.95.54,1.63,1.05,2.04,1.55v3.71c-1.11-.82-2.36-1.44-3.74-1.85-1.38-.41-2.83-.62-4.36-.62-1.24,0-2.25.16-3.03.46-.78.31-1.36.74-1.73,1.3-.37.56-.56,1.25-.56,2.07s.2,1.54.62,2.13ZM701.52,56.37c1.48-.78,3.3-1.53,5.44-2.26,2.14-.72,4.53-1.08,7.17-1.08,2.43,0,4.59.35,6.49,1.05,1.89.7,3.38,1.72,4.45,3.06,1.07,1.34,1.61,2.98,1.61,4.91v20.15h-7.73v-18.48c0-.78-.12-1.45-.37-2.01-.25-.56-.63-1.02-1.14-1.39s-1.12-.64-1.82-.8c-.7-.16-1.48-.25-2.35-.25-1.32,0-2.58.14-3.77.43-1.2.29-2.22.64-3.09,1.05s-1.5.76-1.92,1.05l-2.97-5.44Z"/>
        <path class="cls-1" d="M742.13,34v48.21h-8.04v-48.21h8.04Z"/>
        <path class="cls-1" d="M190.11,113.11v43.26h-8.96v-43.26h8.96Z"/>
        <path class="cls-1" d="M215.94,134.74c-.74-.99-1.94-1.48-3.58-1.48-1.11,0-2.1.24-2.97.71-.87.47-1.53,1.14-1.98,2.01-.45.87-.68,1.89-.68,3.09v17.3h-8.03v-28.43h8.03v4.33c.87-1.61,2.01-2.83,3.43-3.68,1.42-.85,3.14-1.27,5.16-1.27,3.38,0,5.89.96,7.54,2.87s2.47,4.58,2.47,8v18.17h-8.28v-17.3c0-1.89-.37-3.34-1.11-4.33Z"/>
        <path class="cls-1" d="M238.01,149.23c1.03.68,2.01,1.19,2.94,1.51.93.33,1.8.49,2.63.49,1.07,0,1.89-.24,2.47-.71.58-.47.87-1.12.87-1.95,0-.74-.24-1.37-.71-1.89-.47-.51-1.17-.98-2.07-1.39-.91-.41-2.06-.84-3.46-1.3-1.32-.49-2.6-1.08-3.83-1.76-1.24-.68-2.26-1.59-3.06-2.72-.8-1.13-1.21-2.58-1.21-4.36s.45-3.12,1.36-4.3c.91-1.17,2.13-2.06,3.68-2.66,1.54-.6,3.26-.9,5.16-.9,1.61,0,3.11.21,4.51.62,1.4.41,2.7.96,3.89,1.64,1.19.68,2.24,1.47,3.15,2.38l-3.52,4.94c-1.03-1.11-2.26-2.02-3.68-2.72-1.42-.7-2.81-1.05-4.17-1.05-.91,0-1.62.18-2.13.52-.52.35-.77.88-.77,1.58,0,.62.26,1.17.77,1.64.51.47,1.26.9,2.23,1.27.97.37,2.07.82,3.31,1.36,1.52.58,2.94,1.23,4.23,1.95,1.3.72,2.34,1.62,3.12,2.69.78,1.07,1.17,2.47,1.17,4.2,0,2.84-.93,5.06-2.78,6.64-1.85,1.59-4.41,2.38-7.66,2.38-2.02,0-3.86-.27-5.53-.8-1.67-.54-3.17-1.25-4.51-2.13-1.34-.89-2.54-1.84-3.62-2.87l3.89-5.01c1.19,1.11,2.31,2.01,3.34,2.69Z"/>
        <path class="cls-1" d="M260.19,169.97v-42.03h8.04v42.03h-8.04ZM289.67,150.37c-1.28,2.27-2.96,3.98-5.04,5.13-2.08,1.15-4.32,1.73-6.71,1.73s-4.54-.62-6.34-1.85c-1.79-1.24-3.17-2.99-4.14-5.25-.97-2.26-1.45-4.92-1.45-7.97s.48-5.76,1.45-8c.97-2.24,2.35-3.99,4.14-5.22,1.79-1.24,3.9-1.85,6.34-1.85s4.62.58,6.71,1.73c2.08,1.15,3.76,2.85,5.04,5.1,1.28,2.25,1.92,5,1.92,8.25s-.64,5.95-1.92,8.22ZM282.26,137.83c-.7-1.19-1.64-2.1-2.81-2.72s-2.46-.93-3.86-.93c-1.2,0-2.36.3-3.49.9-1.13.6-2.06,1.49-2.78,2.69-.72,1.2-1.08,2.66-1.08,4.39s.36,3.19,1.08,4.39c.72,1.2,1.65,2.09,2.78,2.69,1.13.6,2.3.9,3.49.9,1.4,0,2.69-.31,3.86-.93s2.11-1.52,2.81-2.72c.7-1.19,1.05-2.64,1.05-4.33s-.35-3.13-1.05-4.33Z"/>
        <path class="cls-1" d="M302.9,155.13c-2.31-1.24-4.09-2.96-5.35-5.16-1.26-2.2-1.88-4.81-1.88-7.82s.63-5.68,1.88-7.88c1.26-2.2,3.04-3.91,5.35-5.13,2.31-1.21,5.03-1.82,8.16-1.82s5.8.57,8,1.7c2.2,1.13,3.88,2.78,5.04,4.94,1.15,2.16,1.73,4.77,1.73,7.82,0,.37-.01.76-.03,1.17-.02.41-.05.74-.09.99h-25.46v-4.94h18.48l-2.16,2.84c.16-.25.32-.59.46-1.02.14-.43.22-.79.22-1.08,0-1.4-.26-2.6-.77-3.58-.52-.99-1.25-1.77-2.19-2.35-.95-.58-2.06-.87-3.34-.87-1.57,0-2.87.34-3.92,1.02-1.05.68-1.85,1.69-2.41,3.03-.56,1.34-.86,3-.9,4.98,0,1.9.28,3.5.83,4.82.56,1.32,1.39,2.33,2.5,3.03,1.11.7,2.45,1.05,4.02,1.05,1.77,0,3.28-.34,4.54-1.02,1.26-.68,2.3-1.7,3.12-3.06l6.98,2.16c-1.48,2.68-3.45,4.69-5.9,6.03s-5.39,2.01-8.81,2.01c-3.09,0-5.79-.62-8.1-1.85Z"/>
        <path class="cls-1" d="M339.05,146.48c.74,1.24,1.74,2.2,3,2.9,1.26.7,2.65,1.05,4.17,1.05,1.24,0,2.43-.2,3.58-.59,1.15-.39,2.19-.93,3.12-1.61.93-.68,1.64-1.47,2.13-2.38v8.22c-.99.91-2.28,1.62-3.86,2.13-1.59.51-3.43.77-5.53.77-3.01,0-5.72-.62-8.13-1.85s-4.31-2.98-5.69-5.22-2.07-4.83-2.07-7.76.69-5.56,2.07-7.79c1.38-2.22,3.28-3.95,5.69-5.19,2.41-1.24,5.12-1.85,8.13-1.85,2.1,0,3.94.26,5.53.77,1.59.52,2.87,1.21,3.86,2.07v8.22c-.49-.91-1.23-1.7-2.19-2.38-.97-.68-2.03-1.21-3.18-1.58-1.15-.37-2.31-.56-3.46-.56-1.52,0-2.92.36-4.17,1.08-1.26.72-2.26,1.7-3,2.94-.74,1.24-1.11,2.66-1.11,4.27s.37,3.09,1.11,4.33Z"/>
        <path class="cls-1" d="M376.01,127.94v6.74h-17.55v-6.74h17.55ZM371.07,118.05v38.32h-7.73v-38.32h7.73Z"/>
        <path class="cls-1" d="M381.33,113.69c.95-.84,2.08-1.27,3.4-1.27s2.44.42,3.37,1.27c.93.85,1.39,1.93,1.39,3.24s-.46,2.35-1.39,3.21-2.05,1.3-3.37,1.3-2.45-.43-3.4-1.3c-.95-.87-1.42-1.94-1.42-3.21s.47-2.4,1.42-3.24ZM388.56,127.94v28.43h-7.79v-28.43h7.79Z"/>
        <path class="cls-1" d="M397.18,134.37c1.38-2.22,3.26-3.95,5.62-5.19,2.37-1.24,5.06-1.85,8.07-1.85s5.7.62,8.07,1.85c2.37,1.24,4.24,2.97,5.62,5.19,1.38,2.23,2.07,4.82,2.07,7.79s-.69,5.51-2.07,7.76c-1.38,2.25-3.26,3.99-5.62,5.22-2.37,1.24-5.06,1.85-8.07,1.85s-5.7-.62-8.07-1.85c-2.37-1.24-4.24-2.98-5.62-5.22-1.38-2.25-2.07-4.83-2.07-7.76s.69-5.56,2.07-7.79ZM404.29,146.39c.68,1.22,1.59,2.16,2.75,2.84s2.43,1.02,3.83,1.02,2.68-.34,3.83-1.02,2.07-1.63,2.75-2.84,1.02-2.63,1.02-4.23-.34-3.03-1.02-4.27c-.68-1.24-1.6-2.18-2.75-2.84-1.15-.66-2.43-.99-3.83-.99s-2.68.33-3.83.99-2.07,1.61-2.75,2.84c-.68,1.24-1.02,2.66-1.02,4.27s.34,3.02,1.02,4.23Z"/>
        <path class="cls-1" d="M449.87,134.74c-.74-.99-1.94-1.48-3.58-1.48-1.11,0-2.1.24-2.97.71-.87.47-1.53,1.14-1.98,2.01-.45.87-.68,1.89-.68,3.09v17.3h-8.03v-28.43h8.03v4.33c.86-1.61,2.01-2.83,3.43-3.68,1.42-.85,3.14-1.27,5.16-1.27,3.38,0,5.89.96,7.54,2.87,1.65,1.92,2.47,4.58,2.47,8v18.17h-8.28v-17.3c0-1.89-.37-3.34-1.11-4.33Z"/>
        <path class="cls-1" d="M482.12,113.11h32.14v7.97h-11.68v35.29h-8.84v-35.29h-11.62v-7.97Z"/>
        <path class="cls-1" d="M517.66,155.13c-2.31-1.24-4.09-2.96-5.35-5.16-1.26-2.2-1.88-4.81-1.88-7.82s.63-5.68,1.88-7.88c1.26-2.2,3.04-3.91,5.35-5.13,2.31-1.21,5.03-1.82,8.16-1.82s5.8.57,8,1.7c2.2,1.13,3.88,2.78,5.04,4.94,1.15,2.16,1.73,4.77,1.73,7.82,0,.37-.01.76-.03,1.17-.02.41-.05.74-.09.99h-25.46v-4.94h18.48l-2.16,2.84c.16-.25.32-.59.46-1.02.14-.43.22-.79.22-1.08,0-1.4-.26-2.6-.77-3.58s-1.25-1.77-2.19-2.35c-.95-.58-2.06-.87-3.34-.87-1.57,0-2.88.34-3.93,1.02s-1.85,1.69-2.41,3.03c-.56,1.34-.86,3-.9,4.98,0,1.9.28,3.5.83,4.82.56,1.32,1.39,2.33,2.5,3.03,1.11.7,2.45,1.05,4.02,1.05,1.77,0,3.28-.34,4.54-1.02,1.26-.68,2.3-1.7,3.12-3.06l6.98,2.16c-1.48,2.68-3.45,4.69-5.9,6.03-2.45,1.34-5.39,2.01-8.81,2.01-3.09,0-5.79-.62-8.1-1.85Z"/>
        <path class="cls-1" d="M551.41,149.23c1.03.68,2.01,1.19,2.94,1.51s1.8.49,2.63.49c1.07,0,1.89-.24,2.47-.71.58-.47.87-1.12.87-1.95,0-.74-.24-1.37-.71-1.89-.48-.51-1.17-.98-2.07-1.39-.91-.41-2.06-.84-3.46-1.3-1.32-.49-2.6-1.08-3.83-1.76-1.24-.68-2.25-1.59-3.06-2.72-.8-1.13-1.2-2.58-1.2-4.36s.45-3.12,1.36-4.3c.91-1.17,2.13-2.06,3.68-2.66,1.54-.6,3.27-.9,5.16-.9,1.61,0,3.11.21,4.51.62,1.4.41,2.7.96,3.89,1.64,1.19.68,2.24,1.47,3.15,2.38l-3.52,4.94c-1.03-1.11-2.26-2.02-3.68-2.72-1.42-.7-2.81-1.05-4.17-1.05-.91,0-1.62.18-2.13.52-.52.35-.77.88-.77,1.58,0,.62.26,1.17.77,1.64.52.47,1.26.9,2.23,1.27.97.37,2.07.82,3.31,1.36,1.52.58,2.93,1.23,4.23,1.95,1.3.72,2.34,1.62,3.12,2.69.78,1.07,1.17,2.47,1.17,4.2,0,2.84-.93,5.06-2.78,6.64-1.85,1.59-4.41,2.38-7.66,2.38-2.02,0-3.86-.27-5.53-.8-1.67-.54-3.17-1.25-4.51-2.13-1.34-.89-2.55-1.84-3.62-2.87l3.89-5.01c1.2,1.11,2.31,2.01,3.34,2.69Z"/>
        <path class="cls-1" d="M587.68,127.94v6.74h-17.55v-6.74h17.55ZM582.74,118.05v38.32h-7.73v-38.32h7.73Z"/>
        <path class="cls-1" d="M593,113.69c.95-.84,2.08-1.27,3.4-1.27s2.44.42,3.37,1.27c.93.85,1.39,1.93,1.39,3.24s-.46,2.35-1.39,3.21-2.05,1.3-3.37,1.3-2.45-.43-3.4-1.3c-.95-.87-1.42-1.94-1.42-3.21s.47-2.4,1.42-3.24ZM600.23,127.94v28.43h-7.79v-28.43h7.79Z"/>
        <path class="cls-1" d="M625.94,134.74c-.74-.99-1.94-1.48-3.58-1.48-1.11,0-2.1.24-2.97.71-.86.47-1.52,1.14-1.98,2.01-.45.87-.68,1.89-.68,3.09v17.3h-8.04v-28.43h8.04v4.33c.86-1.61,2.01-2.83,3.43-3.68,1.42-.85,3.14-1.27,5.16-1.27,3.38,0,5.89.96,7.54,2.87s2.47,4.58,2.47,8v18.17h-8.28v-17.3c0-1.89-.37-3.34-1.11-4.33Z"/>
        <path class="cls-1" d="M643.24,133.9c1.28-2.16,2.97-3.8,5.07-4.91,2.1-1.11,4.33-1.67,6.68-1.67s4.5.58,6.33,1.73c1.83,1.15,3.28,2.81,4.33,4.98,1.05,2.16,1.58,4.79,1.58,7.88s-.52,5.66-1.58,7.85c-1.05,2.18-2.49,3.84-4.33,4.98-1.83,1.13-3.94,1.7-6.33,1.7s-4.57-.56-6.68-1.67c-2.1-1.11-3.79-2.75-5.07-4.91-1.28-2.16-1.92-4.81-1.92-7.94s.64-5.84,1.92-8ZM649.73,158.35c.04,1.24.37,2.3.99,3.18.62.89,1.46,1.58,2.54,2.07,1.07.49,2.33.74,3.77.74,1.32,0,2.56-.31,3.74-.93s2.12-1.57,2.84-2.84c.72-1.28,1.08-2.88,1.08-4.82v-27.81h7.73v27.81c0,3.5-.69,6.39-2.07,8.65-1.38,2.27-3.23,3.93-5.53,4.98-2.31,1.05-4.82,1.58-7.54,1.58-3.3,0-6.06-.52-8.28-1.58-2.22-1.05-3.93-2.53-5.1-4.45-1.17-1.92-1.85-4.11-2.01-6.58h7.85ZM650.66,146.2c.7,1.17,1.65,2.07,2.84,2.69,1.19.62,2.47.93,3.83.93,1.19,0,2.36-.3,3.49-.9,1.13-.6,2.06-1.48,2.78-2.66.72-1.17,1.08-2.63,1.08-4.36,0-1.32-.21-2.47-.62-3.46s-.98-1.81-1.7-2.47c-.72-.66-1.51-1.16-2.38-1.51-.87-.35-1.75-.52-2.66-.52-1.36,0-2.64.31-3.83.93-1.2.62-2.14,1.51-2.84,2.69-.7,1.17-1.05,2.63-1.05,4.36s.35,3.12,1.05,4.29Z"/>
      </g>
    </g>
  </g>
</svg>