<?xml version="1.0" encoding="UTF-8"?>
<svg id="Layer_2" xmlns="http://www.w3.org/2000/svg" viewBox="0 0 330.49 534.79">
  <defs>
    <style>
      .cls-1 {
        fill: #fff;
      }
    </style>
  </defs>
  <g id="Layer_1-2" data-name="Layer_1">
    <g id="Logo">
      <g id="icon">
        <polygon class="cls-1" points="330.49 318.49 330.49 401.11 78.02 534.79 0 483.73 0 401.11 10.19 407.78 78.02 452.17 330.49 318.49"/>
        <polygon class="cls-1" points="330.49 184.8 330.49 267.41 78.02 401.11 53.32 384.94 43.13 378.26 43.11 378.26 0 350.05 0 267.41 5.8 271.21 10.19 274.08 67.83 311.82 73.63 315.61 78.02 318.49 110.95 301.04 320.31 190.19 330.49 184.8"/>
        <polygon class="cls-1" points="330.49 51.14 330.49 133.72 287.36 156.57 277.18 161.96 78.03 267.42 53.32 251.23 48.93 248.36 43.13 244.58 0 216.34 0 133.78 .03 133.75 10.22 140.41 78.03 184.8 320.28 56.5 330.47 51.11 330.49 51.14"/>
        <polygon class="cls-1" points="330.47 51.11 320.28 56.5 252.56 12.14 43.16 122.96 22.93 133.69 10.22 140.41 .03 133.75 242.25 5.39 252.41 0 262.74 6.77 330.47 51.11"/>
      </g>
    </g>
  </g>
</svg>