<?xml version="1.0"?>
<svg viewBox="0 0 300 57.055347" width="300" height="57.055347" xmlns="http://www.w3.org/2000/svg">
  <defs
     id="defs1">
    <style
       id="style1">
      .st0 {
        fill: #b4a56f;
      }

      .st1 {
        fill: #343631;
      }
    </style>
  </defs>
  <g
     transform="matrix(0.42738087,0,0,0.42738087,-63.743857,-185.18413)">
    <path
       class="st1"
       d="m 849.1,457 -13.7,-13.7 c -1.2,-1.2 -2.8,-1.9 -4.5,-1.9 h -55.1 c -2.6,0 -4.8,2.1 -4.8,4.8 v 40.2 h -52.9 l 17.8,-23.2 c 1.1,-1.4 1.4,-3.3 0.8,-5 L 734,450 c -0.5,-1.4 -1.5,-2.7 -2.8,-3.4 -6.1,-3.5 -16.1,-7.7 -29,-7.7 -12.9,0 -22.8,4.2 -28.9,7.7 -1.3,0.7 -2.3,2 -2.8,3.4 l -2.7,8.2 c -0.6,1.7 -0.3,3.6 0.8,5 l 17.8,23.1 H 614 v -50.8 h -12.8 v 57 c 0,2.6 2.1,4.8 4.8,4.8 h 225 c 1.7,0 3.3,-0.7 4.5,-1.9 l 13.7,-13.7 c 1.2,-1.2 1.9,-2.8 1.9,-4.5 v -15.7 c 0,-1.7 -0.7,-3.3 -1.9,-4.5 z m -169,0.2 c 0.2,-0.6 0.6,-1.1 1.2,-1.4 4.6,-2.2 11.9,-4.7 21,-4.7 9.1,0 16.5,2.6 21,4.8 0.6,0.3 1,0.8 1.2,1.4 0.2,0.6 0,1.3 -0.4,1.8 L 704,485.5 c -0.4,0.5 -1,0.8 -1.7,0.8 -0.7,0 -1.3,-0.3 -1.7,-0.8 L 680.5,459 c -0.4,-0.5 -0.5,-1.2 -0.4,-1.8 z m 158.3,15.6 c 0,1.1 -0.4,2.2 -1.2,2.9 l -9.1,9.1 c -0.8,0.8 -1.8,1.2 -2.9,1.2 h -41.3 v -33.7 h 41.2 c 1.1,0 2.2,0.4 2.9,1.2 l 9.1,9.1 c 0.8,0.8 1.2,1.8 1.2,2.9 v 7.2 z M 487.9,441.4 h 12.8 v 51.2 c 0,2.6 -2.1,4.8 -4.8,4.8 h -67.7 c -2.6,0 -4.8,-2.1 -4.8,-4.8 v -51.2 h 12.8 v 44.9 h 51.7 z m -19.2,13.9 h -13.3 v -19.8 h 13.3 z m 122.6,25.3 c 1.2,2.1 1.2,4.8 0,6.9 l -3.9,6.9 c -1,1.8 -2.9,2.9 -5,2.9 h -69.6 v -11 h 65 c 1.1,0 1.9,-1.2 1.3,-2.2 l -17.4,-30.9 c -0.3,-0.5 -0.8,-0.8 -1.4,-0.8 h -47.5 v -11 h 53 c 2.1,0 4,1.1 5,2.9 z"
       id="path3" />
    <g>
      <path
         class="st1"
         d="m 732.2,543.9 h 39.6 v -9.3 h -39.6 v -11.3 h 44.4 V 514 h -52.8 c -1.4,0 -2.6,1.2 -2.7,2.6 v 45.2 c 0,1.4 1.2,2.6 2.6,2.6 h 52.9 v -9.3 h -44.4 v -11.3 z"
         id="path4" />
      <path
         class="st1"
         d="m 531.5,514.1 h 11.6 c 1.3,0 2.6,0.7 3.2,1.9 l 26.9,48.5 h -12.3 l -4,-7.1 h -33.8 l 5.2,-9.3 h 23.5 l -13.3,-23.9 c -0.6,-1 -2.1,-1 -2.7,0 l -22.4,40.3 H 501.2 L 528.1,516 c 0.6,-1.2 1.9,-1.9 3.2,-1.9 z"
         id="path5" />
      <path
         class="st1"
         d="m 604.8,514.1 h 11.6 c 1.3,0 2.6,0.7 3.2,1.9 l 26.9,48.5 h -12.3 l -4,-7.1 h -33.8 l 5.2,-9.3 h 23.5 l -13.3,-23.9 c -0.6,-1 -2.1,-1 -2.7,0 l -22.4,40.3 H 574.5 L 601.4,516 c 0.6,-1.2 1.9,-1.9 3.2,-1.9 z"
         id="path6" />
      <path
         class="st1"
         d="m 840,514.1 v 41 h -0.1 c -0.6,0 -1.2,-0.3 -1.6,-0.7 l -33.8,-38.1 c -1.2,-1.3 -2.9,-2.1 -4.7,-2.1 h -12.4 c -1.4,0 -2.6,1.2 -2.6,2.6 v 47.8 c 0,0 11,0 11,0 v -41 0 c 0.6,0 1.2,0.3 1.6,0.7 l 33.8,38.1 c 1.2,1.3 2.9,2.1 4.7,2.1 h 12.4 c 1.4,0 2.6,-1.2 2.6,-2.6 v -47.8 h -11 z"
         id="path7" />
      <path
         class="st1"
         d="m 494.8,514.1 h -12.4 c -1.9,0 -3.6,1.1 -4.3,2.8 l -16.3,37 c -0.3,0.6 -1.3,0.6 -1.6,0 l -16.2,-37 c -0.7,-1.7 -2.4,-2.8 -4.3,-2.8 h -12.6 c -0.9,0 -1.9,0.3 -2.6,0.9 -0.8,0.7 -1.3,1.7 -1.3,2.8 v 46.6 c 0,0 11.1,0 11.1,0 v -41.1 h 0.5 c 0.4,0 0.7,0.2 0.9,0.6 l 16.5,37.7 c 0.7,1.7 2.4,2.8 4.3,2.8 h 8.8 c 1.9,0 3.6,-1.1 4.3,-2.8 L 486,523.9 c 0.2,-0.3 0.5,-0.6 0.9,-0.6 h 0.5 v 41.1 h 11.2 c 0,0 0,-46.6 0,-46.6 0,-1.1 -0.4,-2.1 -1.3,-2.8 -0.7,-0.6 -1.6,-0.9 -2.6,-0.9 z"
         id="path8" />
      <path
         class="st1"
         d="m 710.7,525.9 -9.7,-9.7 c -1.4,-1.4 -3.2,-2.1 -5.1,-2.1 H 652 c -1.4,0 -2.6,1.2 -2.6,2.6 v 45.2 c 0,1.4 1.2,2.6 2.6,2.6 h 43.9 c 1.9,0 3.7,-0.7 5.1,-2.1 l 9.7,-9.7 c 1.4,-1.4 2.1,-3.2 2.1,-5.1 v -16.7 c 0,-1.9 -0.7,-3.7 -2.1,-5.1 z m -50.1,29.3 V 523.4 H 692 c 0.8,0 1.5,0.3 2,0.8 l 7.2,7.2 c 0.5,0.5 0.8,1.3 0.8,2 v 11.7 c 0,0.8 -0.3,1.5 -0.8,2 l -7.2,7.2 c -0.5,0.5 -1.3,0.8 -2,0.8 h -31.5 z"
         id="path9" />
    </g>
    <g>
      <path
         class="st0"
         d="m 151.6,535.7 13.5,24.2 11.6,-20.8 43.3,-78 c 1.7,-3.1 6.2,-3.1 7.9,0 l 12.3,22.2 18.9,-34.1 -3,-5.5 c -3.6,-6.4 -10.4,-10.4 -17.7,-10.4 h -28.9 c -7.4,0 -14.1,4 -17.7,10.4 l -40.1,72.2 c -3.4,6.1 -3.4,13.6 0,19.7 z"
         id="path1" />
      <path
         class="st0"
         d="m 274.7,443.8 -51.4,92.7 c -0.9,1.6 -2.6,2.6 -4.4,2.6 H 189.3 L 174,566.7 h 58.4 c 7.4,0 14.1,-4 17.7,-10.4 l 52.8,-95.2 c 1.7,-3.1 6.2,-3.1 7.9,0 l 39.7,71.4 c 1.7,3 -0.5,6.7 -3.9,6.7 h -34.5 c -1.8,0 -3.5,-1 -4.4,-2.6 l -16.9,-30.5 -18.9,34.1 9,16.2 c 3.6,6.4 10.4,10.4 17.7,10.4 h 51.7 c 7.4,0 14.1,-4 17.7,-10.4 l 11.4,-20.5 c 3.4,-6.1 3.4,-13.6 0,-19.7 L 339.3,444 c -3.6,-6.4 -10.4,-10.4 -17.7,-10.4 h -28.9 c -7.4,0 -14.1,4 -17.7,10.4 z"
         id="path2" />
    </g>
  </g>
</svg>
