<?xml version="1.0" encoding="UTF-8"?>
<svg version="1.1" xmlns="http://www.w3.org/2000/svg" width="960" height="508">
<path d="M0 0 C5.98817255 3.8222378 11.68393664 10.27716503 13.6171875 17.21484375 C13.90550687 21.63291415 12.48658639 24.13305661 9.65917969 27.35791016 C6.33371928 30.64911773 2.52726413 33.31791579 -1.25 36.0625 C-3.05912189 37.39772221 -4.86770741 38.73367143 -6.67578125 40.0703125 C-7.57635254 40.73321289 -8.47692383 41.39611328 -9.40478516 42.07910156 C-13.11391624 44.82448664 -16.77864907 47.62564201 -20.4375 50.4375 C-21.82022116 51.49751499 -23.20303547 52.55740848 -24.5859375 53.6171875 C-25.64699707 54.43074707 -25.64699707 54.43074707 -26.72949219 55.26074219 C-37.28408966 63.34579083 -47.85394849 71.41065889 -58.5 79.375 C-60.38585457 80.78951007 -62.27136692 82.20447486 -64.15673828 83.61962891 C-65.41122198 84.55907935 -66.66747892 85.49616554 -67.92529297 86.43115234 C-69.76766695 87.80177334 -71.60316694 89.1811453 -73.4375 90.5625 C-74.48808594 91.34753906 -75.53867188 92.13257812 -76.62109375 92.94140625 C-79.23273598 94.84746122 -79.23273598 94.84746122 -80 98 C-79.03757165 97.99723462 -79.03757165 97.99723462 -78.0557003 97.99441338 C-62.38685496 97.95009301 -46.71803166 97.91707506 -31.04913902 97.89637566 C-23.47153842 97.88609751 -15.89397986 97.87210403 -8.31640625 97.84912109 C-1.70574527 97.82908052 4.90488524 97.81625846 11.51557577 97.81182301 C15.01038794 97.80923354 18.50511298 97.80322091 21.999897 97.78853989 C25.91742743 97.77221906 29.83487546 97.77202708 33.75244141 97.77294922 C35.4582563 97.76216339 35.4582563 97.76216339 37.1985321 97.75115967 C47.32913317 97.77676295 58.04589157 97.80632001 67 103 C75.41170278 111.60287784 75.13057309 121.93874403 75.24609375 133.26171875 C75.27900449 135.45378045 75.31221656 137.64583764 75.34570312 139.83789062 C75.393252 143.27446681 75.43776719 146.71102121 75.47680664 150.14770508 C75.51645055 153.47755629 75.56797871 156.80705902 75.62109375 160.13671875 C75.63371498 161.68053474 75.63371498 161.68053474 75.64659119 163.25553894 C75.66323318 164.21365982 75.67987518 165.1717807 75.69702148 166.15893555 C75.70732895 166.9994194 75.71763641 167.83990326 75.72825623 168.70585632 C76.04310117 171.36387321 76.39395816 172.84161754 78 175 C82.51473573 177.1001791 86.63276528 177.25284073 91.5625 177.25878906 C92.66126465 177.26404602 92.66126465 177.26404602 93.78222656 177.26940918 C96.18824926 177.27816591 98.59397464 177.27239892 101 177.265625 C102.68099015 177.26697339 104.36197993 177.26891538 106.04296875 177.27142334 C109.55993374 177.27436639 113.07679688 177.27010334 116.59375 177.26074219 C121.09277453 177.24934813 125.59156039 177.25591199 130.09057617 177.26788712 C133.55991399 177.27512784 137.02919561 177.27280763 140.49853516 177.26763153 C142.15706409 177.26630115 143.8155982 177.26792123 145.47412109 177.27259064 C147.79538414 177.27769233 150.11626526 177.26989484 152.4375 177.25878906 C153.75621094 177.25719788 155.07492187 177.25560669 156.43359375 177.25396729 C160.0648085 176.99538492 162.71412644 176.56898985 166 175 C169.05398121 171.32507147 169.37609166 168.32644186 169.38476562 163.63671875 C169.39993225 161.73950073 169.39993225 161.73950073 169.41540527 159.80395508 C169.41384933 159.1332901 169.4122934 158.46262512 169.41069031 157.77163696 C169.40619322 155.66084748 169.42026366 153.55088799 169.43908691 151.44018555 C169.47578082 146.96013697 169.48956648 142.48017671 169.5 138 C169.5120953 132.80625082 169.53368558 127.61290856 169.58000183 122.41934204 C169.59353958 120.34474559 169.58940784 118.27066796 169.58459473 116.19604492 C169.59976135 114.2988269 169.59976135 114.2988269 169.61523438 112.36328125 C169.61831604 110.69712769 169.61831604 110.69712769 169.62145996 108.99731445 C170.05208427 105.587592 170.95369317 103.73992181 173 101 C179.05524822 96.96316786 187.27376719 97.29863661 194.31640625 98.34375 C197.9358739 99.14363235 200.9081267 99.80066437 203 103 C204.21281789 106.63246608 204.14037327 110.15905057 204.16113281 113.96484375 C204.16609772 114.65816299 204.17106262 115.35148224 204.17617798 116.06581116 C204.19076228 118.35638432 204.19759823 120.64688805 204.203125 122.9375 C204.20595238 123.72423096 204.20877975 124.51096191 204.21169281 125.3215332 C204.22667687 129.49153986 204.235909 133.66151205 204.24023438 137.83154297 C204.24569271 142.11037557 204.26966664 146.3888857 204.29820633 150.6676178 C204.31697231 153.98106761 204.32204585 157.29444225 204.32357025 160.60794067 C204.32657006 162.18337755 204.33450657 163.75881397 204.34775543 165.334198 C204.53361878 189.15054105 204.53361878 189.15054105 196.71875 198.3828125 C186.79669198 207.71856709 171.27626402 206.28755099 158.6184845 206.24050903 C156.8641997 206.24138227 155.10991516 206.24313541 153.35563201 206.24568737 C148.55758538 206.25014175 143.75962869 206.24218355 138.96159351 206.23213124 C133.77905278 206.22347144 128.59651688 206.22641869 123.41397095 206.22793579 C114.44233314 206.22898304 105.47072449 206.22272314 96.49909401 206.21146011 C83.52772332 206.19518642 70.55636668 206.18999519 57.58498689 206.18748413 C36.53833939 206.18310996 15.49170743 206.1698084 -5.55493164 206.15087891 C-25.9963371 206.13251291 -46.43773834 206.11835992 -66.87915039 206.10986328 C-68.13975956 206.10933783 -69.40036873 206.10881239 -70.69917818 206.10827102 C-77.02346332 206.10566089 -83.34774848 206.10313349 -89.67203367 206.10064721 C-142.11469984 206.07992338 -194.55734916 206.04470541 -247 206 C-245.90364038 196.45653682 -242.83796589 190.78177852 -235.3125 184.5390625 C-226.37944383 178.59375146 -216.25985213 177.85100333 -205.8591156 177.85523987 C-204.33151071 177.8499496 -204.33151071 177.8499496 -202.77304512 177.84455246 C-199.36228262 177.8338821 -195.95154807 177.83018741 -192.54077148 177.82641602 C-190.09482709 177.82010963 -187.64888385 177.81334374 -185.20294189 177.80615234 C-179.93685029 177.79149088 -174.67076379 177.77968287 -169.40466118 177.77020454 C-161.78535719 177.75631212 -154.16608614 177.73512222 -146.54680587 177.71177601 C-134.17712637 177.67388756 -121.80744095 177.63891383 -109.43774414 177.60717773 C-108.69778562 177.60527724 -107.95782711 177.60337675 -107.1954456 177.60141867 C-96.68866923 177.57457241 -86.18188818 177.55069919 -75.67510206 177.52803367 C-74.5647095 177.52563771 -74.5647095 177.52563771 -73.43188477 177.52319336 C-72.32284695 177.52080316 -72.32284695 177.52080316 -71.19140434 177.51836468 C-58.8661205 177.49160315 -46.54087204 177.45720963 -34.2156263 177.41653961 C-26.61464838 177.39176498 -19.01370851 177.37343812 -11.41269661 177.363384 C-5.59167784 177.35512372 0.22927961 177.33663269 6.05026245 177.31432343 C8.43958143 177.30683521 10.82891388 177.3027661 13.21824455 177.30232811 C16.47430104 177.30124904 19.73008856 177.28803222 22.98609924 177.27174377 C24.41138304 177.27566906 24.41138304 177.27566906 25.86546046 177.27967364 C32.98191944 177.38155667 32.98191944 177.38155667 39 174 C39.10829396 172.62960602 39.14899701 171.25376305 39.16113281 169.87915039 C39.17554413 168.56757713 39.17554413 168.56757713 39.19024658 167.22950745 C39.19449646 166.27849655 39.19874634 165.32748566 39.203125 164.34765625 C39.20882507 163.37718857 39.21452515 162.40672089 39.22039795 161.40684509 C39.22986293 159.34977311 39.23638785 157.29268586 39.24023438 155.2355957 C39.24994823 152.0793227 39.28096097 148.92369833 39.3125 145.76757812 C39.3190288 143.77344139 39.32427975 141.77929997 39.328125 139.78515625 C39.3466452 138.36167625 39.3466452 138.36167625 39.36553955 136.90943909 C39.3610379 135.59313759 39.3610379 135.59313759 39.35644531 134.25024414 C39.36009094 133.4760463 39.36373657 132.70184845 39.36749268 131.90419006 C39.24622009 131.27580734 39.12494751 130.64742462 39 130 C35.60041211 127.73360807 34.41818555 127.74657693 30.42955017 127.73498535 C29.27031036 127.72671219 28.11107056 127.71843903 26.91670227 127.70991516 C25.64344589 127.71089706 24.37018951 127.71187897 23.05834961 127.71289062 C21.70468738 127.70686651 20.35102889 127.69994229 18.99737549 127.69218445 C16.08031553 127.67728577 13.16332414 127.66854365 10.24622917 127.66447449 C5.62669422 127.65775815 1.00730533 127.63599707 -3.61216736 127.61193848 C-13.42891063 127.56294185 -23.24568503 127.53068391 -33.0625 127.5 C-43.63689654 127.46688879 -54.21123603 127.43078469 -64.78554529 127.37586927 C-69.36982689 127.35262542 -73.95400795 127.33880547 -78.5383426 127.33237457 C-81.40360327 127.32639804 -84.26878356 127.31226813 -87.13400269 127.29603004 C-89.07865125 127.28743612 -91.02333536 127.28856828 -92.96800232 127.29008484 C-103.40646536 127.21683575 -113.45818335 126.76853991 -121.6875 119.6875 C-126.73908137 113.81674327 -127.68667167 108.95750936 -127.4609375 101.30859375 C-125.72041585 88.81518833 -113.99594311 80.96003388 -104.5847168 73.84033203 C-101.83140174 71.78160561 -99.06284653 69.74378412 -96.29541016 67.70410156 C-92.10421943 64.59258154 -87.9607077 61.41846099 -83.8125 58.25 C-82.0169384 56.88019349 -80.22136539 55.51040196 -78.42578125 54.140625 C-77.52811035 53.45548828 -76.63043945 52.77035156 -75.70556641 52.06445312 C-70.43233296 48.04076949 -65.15508882 44.02234788 -59.87841797 40.00317383 C-55.48882758 36.65932679 -51.10051578 33.31382877 -46.71484375 29.96484375 C-37.82850033 23.18113125 -28.92950239 16.41433171 -20 9.6875 C-19.16911865 9.05900146 -18.3382373 8.43050293 -17.48217773 7.78295898 C-5.85288408 -0.95557291 -5.85288408 -0.95557291 0 0 Z " fill="#1F55AD" transform="translate(265,18)"/>
<path d="M0 0 C2.47899221 4.79569165 3.37574588 8.35154306 3.38526917 13.81315613 C3.39312271 14.7856961 3.39312271 14.7856961 3.40113491 15.77788335 C3.41500162 17.93048584 3.40781979 20.08248039 3.40063477 22.23510742 C3.40638212 23.78628569 3.41346687 25.33745948 3.42178345 26.8886261 C3.43685796 30.21872795 3.44267418 33.54866987 3.44125557 36.87880516 C3.43921789 42.14392852 3.45881388 47.40883737 3.48143005 52.67390442 C3.52235301 62.89501171 3.54100303 73.1161019 3.55760193 83.33727264 C3.57997888 96.35860259 3.61345871 109.37988291 3.66480106 122.40113145 C3.68473086 127.63605373 3.69430316 132.87086322 3.69575322 138.10582197 C3.69850104 141.35864247 3.70932505 144.6114005 3.72226334 147.86419487 C3.72654708 149.37348096 3.72740028 150.88278122 3.72458839 152.39207077 C3.72119247 154.45079015 3.72995848 156.50911437 3.74171448 158.5677948 C3.74334878 159.72016223 3.74498308 160.87252966 3.74666691 162.05981731 C3.99625772 164.95656712 4.37778816 166.61021807 6 169 C11.30666813 171.6707737 16.97507195 171.28210973 22.77539062 171.25878906 C24.38621773 171.26404602 24.38621773 171.26404602 26.02958679 171.26940918 C29.57187403 171.27819643 33.11396081 171.27238784 36.65625 171.265625 C39.12194863 171.26697251 41.587647 171.26891376 44.05334473 171.27142334 C49.21804334 171.27437053 54.38267272 171.27008989 59.54736328 171.26074219 C66.16505698 171.24934798 72.78258844 171.2559096 79.40027618 171.26788712 C84.49091818 171.27511657 89.58152176 171.27281277 94.67216492 171.26763153 C97.11219807 171.26629805 99.55223472 171.2679322 101.99226379 171.27259064 C105.40313955 171.27767359 108.81375312 171.26992044 112.22460938 171.25878906 C113.23154343 171.26283752 114.23847748 171.26688599 115.27592468 171.27105713 C123.87022967 171.30426099 123.87022967 171.30426099 131 167 C132.03939509 163.2329618 132.12945389 159.62115998 132.1418457 155.72851562 C132.14888016 154.48372437 132.15591461 153.23893311 132.16316223 151.9564209 C132.16497812 151.29655685 132.16679401 150.63669281 132.16866493 149.95683289 C132.17587286 147.87985356 132.19156913 145.80310472 132.21000671 143.72619629 C132.26228799 137.82384302 132.31046879 131.92162311 132.32592773 126.01904297 C132.33602071 122.40147327 132.36536853 118.78449558 132.40724754 115.16716003 C132.41953492 113.7925413 132.42468291 112.41783895 132.42244911 111.04316711 C132.42009087 109.1192091 132.44448441 107.19527502 132.4699707 105.27148438 C132.47583694 104.17848022 132.48170319 103.08547607 132.48774719 101.95935059 C133.12522865 98.2765379 134.37401806 96.62194475 137 94 C145.45346017 90.93926442 154.53097559 91.02841249 163 94 C166.27523232 97.16957966 166.91817175 100.39134648 167.14476013 104.8458252 C167.154272 105.94406616 167.16378387 107.04230713 167.17358398 108.17382812 C167.18707382 109.42192261 167.20056366 110.67001709 167.21446228 111.95593262 C167.21952223 112.61991562 167.22458218 113.28389862 167.22979546 113.96800232 C167.24626568 116.05301567 167.26950396 118.13785314 167.29469299 120.22277832 C167.36531481 126.14891747 167.42562455 132.07512635 167.47680664 138.00146484 C167.50862337 141.63069435 167.54989907 145.25971696 167.59700203 148.88877869 C167.61299817 150.26981384 167.62533078 151.65089653 167.63390923 153.03199768 C167.64608316 154.96346528 167.67126922 156.89483759 167.69702148 158.82617188 C167.71248268 160.47353333 167.71248268 160.47353333 167.72825623 162.1541748 C168.06291606 165.90491007 168.06291606 165.90491007 170 169 C174.89133606 170.91468879 179.35222516 171.25238343 184.56835938 171.25878906 C185.65030327 171.26404602 185.65030327 171.26404602 186.75410461 171.26940918 C189.11742023 171.27814805 191.48043181 171.27240535 193.84375 171.265625 C195.49849505 171.26697391 197.1532397 171.26891632 198.8079834 171.27142334 C202.26769808 171.27436398 205.72730913 171.27011118 209.18701172 171.26074219 C213.60856119 171.24934828 218.02986781 171.25591344 222.45140839 171.26788712 C225.86588349 171.27513441 229.28030157 171.27280463 232.69477844 171.26763153 C234.32457 171.26630296 235.95436683 171.26791479 237.58415222 171.27259064 C239.86678669 171.27770324 242.14903473 171.26987981 244.43164062 171.25878906 C245.72734985 171.25719788 247.02305908 171.25560669 248.35803223 171.25396729 C252.25153828 170.98245935 255.3838205 170.48723977 259 169 C261.28090445 165.41293555 261.25485783 161.92132019 261.27124023 157.74438477 C261.28142685 156.5028212 261.29161346 155.26125763 261.30210876 153.98207092 C261.30304976 153.32382891 261.30399075 152.66558689 261.30496025 151.98739815 C261.30864197 149.91425498 261.32541664 147.84158253 261.34571838 145.76853943 C261.40096057 139.87727631 261.43179406 133.98594518 261.45629883 128.09448242 C261.47221937 124.48349692 261.50248181 120.87284792 261.54106331 117.26203728 C261.5526706 115.89102704 261.55864328 114.51995654 261.55874443 113.14889717 C261.5589376 111.22755367 261.57877668 109.30624297 261.59936523 107.38500977 C261.60443588 106.29422623 261.60950653 105.20344269 261.61473083 104.0796051 C262.06513561 100.47934594 263.11620062 98.08886663 265 95 C271.05524822 90.96316786 279.27376719 91.29863661 286.31640625 92.34375 C289.94933733 93.1466077 292.84777922 93.83496945 295 97 C296.08991816 100.26975448 296.13766656 102.69423579 296.15771484 106.13623047 C296.17310806 108.03367508 296.17310806 108.03367508 296.18881226 109.9694519 C296.19225018 110.64511074 296.1956881 111.32076958 296.19923019 112.01690292 C296.21104081 114.13572206 296.23049895 116.25433935 296.25234985 118.37307739 C296.31389352 124.39659894 296.36799149 130.42009889 296.40136719 136.44384766 C296.42234145 140.13035264 296.45766506 143.81648767 296.50212479 147.50278091 C296.51626196 148.90531173 296.52500208 150.30790797 296.52817917 151.71050644 C296.53310119 153.67541147 296.55789261 155.64023609 296.58349609 157.60498047 C296.59158295 158.72178192 296.5996698 159.83858337 296.60800171 160.98922729 C297.06290688 164.48316109 297.74694195 166.28834997 300 169 C303.9943901 170.83535731 307.53324717 171.25448301 311.89428711 171.2746582 C313.0324437 171.28419022 314.17060028 171.29372223 315.34324646 171.30354309 C316.55899857 171.30263168 317.77475067 171.30172028 319.02734375 171.30078125 C320.28962296 171.30506638 321.55190216 171.3093515 322.85243225 171.31376648 C325.51789337 171.31950127 328.18296616 171.32095541 330.84838867 171.31567383 C334.24886095 171.30988086 337.64878824 171.3268172 341.04917049 171.3500185 C344.31272373 171.3683689 347.57624826 171.36456915 350.83984375 171.36328125 C352.66043556 171.37709587 352.66043556 171.37709587 354.51780701 171.39118958 C360.71091548 171.35739015 365.63142282 171.26190214 371 168 C372.07850959 164.76447122 372.13745635 162.39117201 372.15771484 158.98730469 C372.16797699 157.74881775 372.17823914 156.51033081 372.18881226 155.23431396 C372.19225018 154.57270012 372.1956881 153.91108627 372.19923019 153.22942352 C372.21105025 151.15205972 372.23051249 149.07490093 372.25234985 146.99761963 C372.31384932 141.09174493 372.3679117 135.18589061 372.40136719 129.27978516 C372.42239461 125.66459135 372.45776396 122.04977099 372.50212479 118.43479156 C372.51622395 117.06182522 372.52499341 115.68879279 372.52817917 114.31575775 C372.56322082 100.65474183 372.56322082 100.65474183 376 95 C382.50488059 90.66341294 391.88346584 91.20596526 399.375 92.6875 C403.57292706 94.20743911 404.66031082 95.25957129 407 99 C407.38214928 101.63597725 407.53873421 103.84890863 407.50170898 106.47729492 C407.50981346 107.58083313 407.50981346 107.58083313 407.51808167 108.70666504 C407.53055708 111.13167955 407.5140789 113.55550327 407.49609375 115.98046875 C407.49624885 117.67572593 407.49773965 119.37098347 407.50050354 121.0662384 C407.50188728 124.61959512 407.48934042 128.17254814 407.46655273 131.72583008 C407.43827648 136.25712469 407.44087618 140.78774328 407.45364285 145.31908703 C407.46063761 148.82208413 407.45276589 152.32492812 407.44038582 155.82790565 C407.43590042 157.49707767 407.43550878 159.1662663 407.43945122 160.83543968 C407.45358881 172.09550386 407.42626698 182.82637608 400 192 C392.7644242 199.2355758 381.9664278 200.1208564 372.211936 200.13142776 C371.56309469 200.1334804 370.91425338 200.13553303 370.24575022 200.13764787 C368.08055701 200.14328367 365.91542809 200.14186488 363.75022888 200.14044189 C362.17849071 200.1430275 360.6067532 200.1460412 359.0350166 200.1494453 C354.72245613 200.15749568 350.40991232 200.15930377 346.09734523 200.16004276 C341.44343743 200.16189675 336.7895382 200.16944584 332.13563538 200.17617798 C321.9618818 200.18974807 311.78813218 200.19578401 301.61437106 200.20018864 C295.25873719 200.2029534 288.90310484 200.2071912 282.547472 200.21169281 C264.94185068 200.22388395 247.33623057 200.23418344 229.73060513 200.2375679 C228.60424534 200.23778747 227.47788556 200.23800703 226.31739366 200.23823325 C224.62386816 200.23856067 224.62386816 200.23856067 222.89613003 200.2388947 C220.60840634 200.23933816 218.32068266 200.23978473 216.03295898 200.24023438 C214.898175 200.2404558 213.76339101 200.24067723 212.59421963 200.24090537 C194.213303 200.24485204 175.83242604 200.26230274 157.45152473 200.2855939 C138.56872672 200.30932738 119.68594861 200.32177067 100.80313545 200.32293582 C90.20577048 200.32385148 79.6084572 200.32957623 69.01110649 200.34775543 C59.98590755 200.3631834 50.96077628 200.368261 41.93556666 200.36001733 C37.33435217 200.35612032 32.73327385 200.35699386 28.13207626 200.37107468 C23.91196265 200.38387067 19.69208674 200.38256647 15.47197319 200.37048396 C13.95309857 200.36853678 12.43420677 200.37155964 10.91535621 200.38032833 C-2.46383058 200.4526196 -15.5750527 200.07960092 -25.6875 190.4375 C-32.43038172 181.68203562 -31.4308381 169.50533051 -31.38818359 159.04150391 C-31.3922559 157.35343081 -31.39760147 155.66536037 -31.40411377 153.97729492 C-31.41770851 149.42396941 -31.41252305 144.8708494 -31.40297651 140.31752062 C-31.39534655 135.54194645 -31.40243406 130.76638911 -31.40713501 125.99081421 C-31.4125797 117.98000955 -31.40543148 109.9692881 -31.39111328 101.95849609 C-31.37475577 92.69985968 -31.3801029 83.44142115 -31.3965925 74.18278944 C-31.4102042 66.22075476 -31.41212958 58.25877963 -31.40427649 50.29673707 C-31.39960254 45.54650206 -31.39896819 40.79636014 -31.40888596 36.04613113 C-31.41754991 31.58577946 -31.41154425 27.12568354 -31.39420319 22.6653595 C-31.39023673 21.02909647 -31.39137513 19.39281192 -31.39799118 17.75655746 C-31.40618983 15.52309347 -31.39590668 13.29044912 -31.38095093 11.05703735 C-31.37981985 9.80754618 -31.37868877 8.558055 -31.37752342 7.27070045 C-30.96598619 3.70531898 -30.18052865 1.82597957 -28 -1 C-20.03159934 -4.71858698 -7.3558585 -5.06736919 0 0 Z " fill="#1F55AE" transform="translate(533,24)"/>
<path d="M0 0 C0.75990234 -0.03738281 1.51980469 -0.07476562 2.30273438 -0.11328125 C6.4010409 -0.17737292 8.21820587 0.04655562 11.66796875 2.4609375 C15.14421993 7.47695952 14.81248781 13.25680272 14.83898926 19.20834351 C14.84322167 19.85882019 14.84745408 20.50929687 14.85181475 21.17948496 C14.86473484 23.33889747 14.87084053 25.49827318 14.87695312 27.65771484 C14.8849035 29.21375753 14.89329208 30.76979803 14.90208435 32.32583618 C14.92008219 35.66571793 14.93511815 39.00559506 14.94786072 42.34550095 C14.96813196 47.62234346 14.99577356 52.89913171 15.02453613 58.17593384 C15.08962211 70.3208987 15.14523721 82.46590337 15.20052338 94.61091614 C15.2513407 105.7600997 15.30414753 116.90926329 15.36504889 128.05839694 C15.39344841 133.30917058 15.4170244 138.55993752 15.43697357 143.81074977 C15.45031834 147.06669153 15.46773152 150.32260206 15.48628426 153.57851791 C15.49406758 155.09389969 15.50012513 156.6092914 15.50437737 158.12468719 C15.51038539 160.18436461 15.52241378 162.24391919 15.53601074 164.30355835 C15.54116447 165.45869116 15.54631821 166.61382397 15.55162811 167.8039608 C15.39651612 170.30695112 15.39651612 170.30695112 16.6875 171.375 C19.06050869 171.46994733 21.40428703 171.50059319 23.77758789 171.48852539 C24.51900528 171.48867142 25.26042267 171.48881744 26.02430725 171.4889679 C28.48628621 171.48826865 30.94819043 171.48047574 33.41015625 171.47265625 C35.11266539 171.47079211 36.81517507 171.46936819 38.51768494 171.46836853 C43.00743073 171.46454302 47.49714438 171.45471247 51.98687744 171.44366455 C56.56481491 171.43345113 61.14275756 171.42887106 65.72070312 171.42382812 C74.70964957 171.41309022 83.69857212 171.39601341 92.6875 171.375 C94.44190489 166.11178534 91.85813117 160.98131091 89.65234375 156.0703125 C77.20317593 132.35359279 53.56371963 120.08749549 29.296875 111.515625 C26.74707673 110.40104252 25.38974437 109.54452714 23.6875 107.375 C21.87378246 101.93384738 23.25022657 97.37283306 25.6875 92.375 C27.875 89.8125 27.875 89.8125 30.6875 88.375 C36.74656404 87.96586706 41.48998315 88.87910673 47.1875 90.875 C47.96577148 91.14272217 48.74404297 91.41044434 49.54589844 91.6862793 C76.95891748 101.44208901 100.94175467 118.53810082 114.00317383 145.1027832 C118.79182426 155.49024479 120.98564273 166.14640182 121.125 177.5625 C121.14046875 178.60458618 121.14046875 178.60458618 121.15625 179.66772461 C121.07538595 184.26855229 120.07147349 187.45805578 117.6875 191.375 C114.15227552 194.57879719 111.02292308 195.4974057 106.31843567 195.51544189 C105.42555847 195.52115204 104.53268127 195.52686218 103.61274719 195.53274536 C102.14698494 195.53442215 102.14698494 195.53442215 100.65161133 195.53613281 C99.62039154 195.54109772 98.58917175 195.54606262 97.52670288 195.55117798 C94.10763892 195.56580855 90.6886214 195.57260387 87.26953125 195.578125 C84.89401752 195.58387665 82.51850381 195.58963438 80.14299011 195.59539795 C75.15709212 195.60591113 70.17121026 195.61175142 65.18530273 195.61523438 C58.80421394 195.62071327 52.42333915 195.64472725 46.04231739 195.67320633 C41.13259769 195.69185569 36.22292924 195.69703959 31.31317711 195.69857025 C28.961309 195.70159317 26.60944172 195.7096095 24.25760841 195.72275543 C20.96169536 195.73986007 17.66630109 195.7379244 14.37036133 195.73144531 C13.40330765 195.7406601 12.43625397 195.74987488 11.43989563 195.7593689 C4.32174653 195.71566096 -0.99263674 194.44069269 -7.125 190.625 C-12.83428767 184.75258983 -13.43429665 177.14175281 -13.45294189 169.35351562 C-13.45591302 168.65856743 -13.45888414 167.96361923 -13.4619453 167.247612 C-13.47059762 164.92547902 -13.47213757 162.6033978 -13.47363281 160.28125 C-13.47826327 158.61376842 -13.48328824 156.94628789 -13.48867798 155.27880859 C-13.50177804 150.75412026 -13.50824173 146.22944675 -13.51268864 141.70474243 C-13.51562194 138.87794801 -13.51972714 136.05115762 -13.52419281 133.22436523 C-13.53785859 124.37972279 -13.54753095 115.53508959 -13.5513947 106.69043732 C-13.55587974 96.4800877 -13.57345216 86.26987167 -13.6023953 76.05956268 C-13.62399626 68.16560338 -13.63409806 60.27168172 -13.63543582 52.37769318 C-13.63648456 47.66312013 -13.64240764 42.94867281 -13.66025543 38.23413086 C-13.67670973 33.80179253 -13.67890454 29.36967484 -13.67011642 24.93731689 C-13.66934475 23.31072398 -13.67370588 21.68411931 -13.68357468 20.05755615 C-13.69625801 17.83693505 -13.69043782 15.61709982 -13.67999268 13.39648438 C-13.68145924 12.15394897 -13.6829258 10.91141357 -13.6844368 9.63122559 C-13.27978055 6.08854837 -12.44589646 4.20303566 -10.3125 1.375 C-7.06911813 -0.24669093 -3.56056679 0.06544066 0 0 Z " fill="#F7920F" transform="translate(608.3125,292.625)"/>
<path d="M0 0 C1.05477539 -0.0299707 1.05477539 -0.0299707 2.13085938 -0.06054688 C5.69458749 -0.05720692 7.91096539 0.34915512 11.00390625 2.15234375 C15.24252218 6.85744872 14.21063471 13.47841969 14.20776367 19.48510742 C14.21112228 20.49389954 14.2144809 21.50269165 14.21794128 22.54205322 C14.22743639 25.87570428 14.22939387 29.20930501 14.23046875 32.54296875 C14.23368299 34.86599244 14.23704719 37.18901592 14.24055481 39.51203918 C14.24654295 44.38343779 14.2483951 49.25481867 14.24780273 54.1262207 C14.24770128 60.35231 14.26133743 66.57828483 14.27857494 72.80434704 C14.28972446 77.60433977 14.29172101 82.40430511 14.29119301 87.20430946 C14.29236929 89.49869493 14.29677122 91.79308118 14.30452538 94.08745384 C14.31438213 97.30602263 14.31142448 100.52434674 14.30541992 103.74291992 C14.31103943 104.68093948 14.31665894 105.61895905 14.32244873 106.58540344 C14.28046026 115.49472148 13.47757314 124.11983359 8.0625 131.4375 C3.25066599 135.11647799 -1.55239494 136.55250457 -7.51620483 136.58467102 C-8.88716057 136.59540398 -8.88716057 136.59540398 -10.28581238 136.60635376 C-11.2812355 136.60904266 -12.27665863 136.61173157 -13.30224609 136.61450195 C-14.8833744 136.62435875 -14.8833744 136.62435875 -16.4964447 136.63441467 C-19.98460969 136.65412585 -23.47273173 136.66580387 -26.9609375 136.67578125 C-28.74802565 136.68189454 -28.74802565 136.68189454 -30.57121658 136.68813133 C-36.87397335 136.70898016 -43.17670841 136.72328852 -49.47949219 136.73266602 C-55.99196668 136.74374355 -62.50410073 136.77816276 -69.0164547 136.81783772 C-74.02302695 136.84396273 -79.02951746 136.85235409 -84.03615189 136.85594749 C-86.43713309 136.86082203 -88.83811043 136.87246052 -91.23902512 136.89098549 C-94.59761468 136.91529431 -97.95531451 136.91442688 -101.31396484 136.9074707 C-102.80102684 136.92668579 -102.80102684 136.92668579 -104.31813049 136.94628906 C-110.1858171 136.90198318 -113.44495742 136.30023879 -117.9375 132.4375 C-121.54669081 128.1492014 -121.44359027 123.92379409 -121.375 118.5625 C-121.36146484 117.29829224 -121.36146484 117.29829224 -121.34765625 116.00854492 C-120.70327878 92.33886017 -107.38467188 71.62929788 -90.9375 55.4375 C-83.25890309 48.32426163 -75.03377312 42.59090188 -65.9375 37.4375 C-65.09574219 36.95410156 -64.25398438 36.47070312 -63.38671875 35.97265625 C-54.64049621 31.2631518 -43.98004467 27.15935795 -33.9375 28.4375 C-30.07958021 30.11485643 -28.49019227 31.58160869 -26.9375 35.4375 C-26.67680359 37.75183105 -26.67680359 37.75183105 -26.6628418 40.32617188 C-26.65330978 41.29397583 -26.64377777 42.26177979 -26.63395691 43.25891113 C-26.63486832 44.29753296 -26.63577972 45.33615479 -26.63671875 46.40625 C-26.63243362 47.47870972 -26.6281485 48.55116943 -26.62373352 49.65612793 C-26.61799375 51.92227472 -26.61748735 54.18843994 -26.62182617 56.45458984 C-26.62498813 59.92447237 -26.60151488 63.393504 -26.57617188 66.86328125 C-26.57389909 69.06510309 -26.57319529 71.26692722 -26.57421875 73.46875 C-26.565009 74.50737183 -26.55579926 75.54599365 -26.54631042 76.61608887 C-26.55253922 77.58389282 -26.55876801 78.55169678 -26.56518555 79.54882812 C-26.56455612 80.3983606 -26.5639267 81.24789307 -26.5632782 82.12316895 C-27.02174226 84.95848641 -28.01465464 86.33544804 -29.9375 88.4375 C-32.99779845 89.66032539 -36.10459539 89.60232036 -39.375 89.625 C-40.30183594 89.63917969 -41.22867188 89.65335937 -42.18359375 89.66796875 C-45.23968982 89.41221036 -47.26881237 88.96181043 -49.9375 87.4375 C-51.80181227 83.77089838 -52.17645528 80.77981867 -52.1328125 76.69921875 C-52.12636719 75.63251953 -52.11992187 74.56582031 -52.11328125 73.46679688 C-52.08814453 71.81260742 -52.08814453 71.81260742 -52.0625 70.125 C-52.05347656 69.00287109 -52.04445313 67.88074219 -52.03515625 66.72460938 C-52.01164486 63.96202091 -51.97878155 61.19987068 -51.9375 58.4375 C-69.48194998 65.85506878 -83.86228687 80.21821737 -91.3828125 97.8203125 C-93.01017422 102.45203432 -94.27680115 106.48718321 -93.9375 111.4375 C-92.25517661 113.11982339 -90.18326976 112.56325392 -87.93766785 112.57302856 C-86.86540703 112.56999222 -86.86540703 112.56999222 -85.77148438 112.56689453 C-84.64713737 112.56952301 -84.64713737 112.56952301 -83.50007629 112.57220459 C-81.01044431 112.5766232 -78.52088277 112.5736851 -76.03125 112.5703125 C-74.30871568 112.57098554 -72.58618145 112.57195556 -70.86364746 112.57321167 C-67.24877012 112.57468865 -63.63391745 112.57253407 -60.01904297 112.56787109 C-55.37483507 112.5621738 -50.73068496 112.5654528 -46.08647919 112.57144356 C-42.52813274 112.57504916 -38.9698001 112.57391059 -35.41145325 112.57131577 C-33.69855238 112.57064649 -31.98565028 112.57147493 -30.27275085 112.57379532 C-27.88297178 112.57632183 -25.49328759 112.5724813 -23.10351562 112.56689453 C-22.38867508 112.56891876 -21.67383453 112.57094299 -20.93733215 112.57302856 C-17.65577682 112.84153866 -17.65577682 112.84153866 -14.9375 111.4375 C-14.82269767 108.26776 -14.77262298 105.11893585 -14.76391602 101.94824219 C-14.7538855 100.45314369 -14.7538855 100.45314369 -14.74365234 98.92784119 C-14.7295642 96.75504549 -14.71768227 94.58223466 -14.70770454 92.4094162 C-14.69134642 88.97180216 -14.66810972 85.53429983 -14.64280701 82.09674072 C-14.57189559 72.31992121 -14.51193469 62.54305522 -14.46069336 52.76611328 C-14.42890546 46.79323075 -14.38762574 40.82047463 -14.34049797 34.8476944 C-14.32447147 32.5687411 -14.31215291 30.28975864 -14.30359077 28.01076508 C-14.29144038 24.82182488 -14.26728992 21.63318174 -14.24047852 18.44433594 C-14.23988937 17.50075729 -14.23930023 16.55717865 -14.23869324 15.58500671 C-14.17901774 10.22995041 -14.09140089 5.79801009 -10.30859375 1.65234375 C-6.92702082 -0.08022492 -3.71174511 -0.03721896 0 0 Z " fill="#F7920F" transform="translate(563.9375,351.5625)"/>
<path d="M0 0 C0.73452393 -0.01764404 1.46904785 -0.03528809 2.22583008 -0.0534668 C6.9469774 -0.04744702 10.23980548 0.69840632 14.1875 3.3125 C16.51391174 6.43231228 16.51477754 9.49470319 16.5625 13.3125 C16.59085938 14.34375 16.61921875 15.375 16.6484375 16.4375 C16.07629504 20.00611737 15.00195111 21.11783776 12.1875 23.3125 C9.2710683 24.2846439 7.06522578 24.53239735 4.015625 24.70703125 C-38.85030416 26.76358898 -38.85030416 26.76358898 -75.8125 46.3125 C-74.84054687 46.30583817 -73.86859375 46.29917633 -72.8671875 46.29231262 C-63.68684165 46.23137596 -54.5065371 46.18646721 -45.32603455 46.15706348 C-40.60675598 46.14143831 -35.8876413 46.12025776 -31.16845703 46.08618164 C-26.6102539 46.05347563 -22.05220795 46.03562332 -17.49389648 46.02786827 C-15.75884529 46.02234489 -14.02380225 46.01155918 -12.28881836 45.99530983 C-9.84991168 45.97338571 -7.41164634 45.97053926 -4.97265625 45.97192383 C-4.26271011 45.961138 -3.55276398 45.95035217 -2.82130432 45.9392395 C3.37496584 45.97705627 9.02451531 47.20643596 13.5625 51.625 C16.77998185 56.94621998 17.49640194 61.92773625 17.48828125 68.0546875 C17.49256638 68.78188995 17.4968515 69.50909241 17.50126648 70.2583313 C17.5069824 71.78956059 17.50753034 73.32081702 17.50317383 74.85205078 C17.50001837 77.17398235 17.52348984 79.49463221 17.54882812 81.81640625 C17.55110213 83.31249841 17.55180415 84.80859396 17.55078125 86.3046875 C17.559991 86.98828339 17.56920074 87.67187927 17.57868958 88.37619019 C17.52047408 94.55155066 16.27779683 100.22220317 11.8125 104.6875 C7.1205857 107.59201838 3.4915119 108.56237958 -2.03242493 108.55300903 C-3.28459305 108.55575836 -4.53676117 108.55850769 -5.82687378 108.56134033 C-7.20660497 108.554263 -8.58633518 108.54699339 -9.96606445 108.53955078 C-11.42491142 108.53898639 -12.88375895 108.53930378 -14.34260559 108.54043579 C-18.29677877 108.5410092 -22.25083041 108.52925679 -26.20497537 108.51528788 C-30.33962146 108.50277858 -34.4742704 108.50160986 -38.6089325 108.49923706 C-46.4357216 108.49302288 -54.26245478 108.47661289 -62.08921927 108.45653808 C-71.00088695 108.43417717 -79.9125573 108.42318516 -88.82424605 108.41314721 C-107.15369573 108.39224662 -125.48309337 108.35707183 -143.8125 108.3125 C-143.51849314 106.87907503 -143.21768804 105.44704343 -142.9140625 104.015625 C-142.66390381 102.81921387 -142.66390381 102.81921387 -142.40869141 101.59863281 C-141.06059879 96.4292883 -138.28742277 93.41817449 -133.9375 90.5625 C-124.58199504 85.18696124 -114.77928143 85.15868439 -104.24389648 85.19897461 C-103.22821091 85.19882858 -102.21252533 85.19868256 -101.1660614 85.1985321 C-97.83854978 85.19922383 -94.51109548 85.20698132 -91.18359375 85.21484375 C-88.86475149 85.21671056 -86.54590884 85.21813322 -84.22706604 85.21913147 C-78.14605608 85.22293592 -72.06507029 85.23274839 -65.98406982 85.24383545 C-59.76998217 85.25409424 -53.55589057 85.25863864 -47.34179688 85.26367188 C-35.16535401 85.27437263 -22.98892902 85.29142401 -10.8125 85.3125 C-10.4825 80.3625 -10.1525 75.4125 -9.8125 70.3125 C-11.36105934 70.30036972 -11.36105934 70.30036972 -12.94090271 70.28799438 C-22.69501005 70.21033305 -32.44898134 70.12254405 -42.20291042 70.02497292 C-47.21687011 69.97513884 -52.23081003 69.92880808 -57.24487305 69.890625 C-62.08845998 69.85360887 -66.93187622 69.80720554 -71.77531624 69.75443649 C-73.61833753 69.73597899 -75.46139529 69.72083953 -77.30447197 69.70915604 C-79.89643513 69.69214471 -82.48801469 69.66307565 -85.07983398 69.63134766 C-85.83293854 69.62918747 -86.58604309 69.62702728 -87.36196899 69.62480164 C-94.51220153 69.5138091 -101.96360249 68.74348296 -107.8125 64.3125 C-110.53667415 60.22623877 -111.20301323 56.85293555 -110.44921875 51.94921875 C-107.06987999 38.61845295 -95.81159167 29.31123138 -84.625 22.1875 C-58.77656686 6.98608774 -29.86390106 0.40394125 0 0 Z " fill="#F7920F" transform="translate(413.8125,379.6875)"/>
<path d="M0 0 C3.1536222 3.1536222 3.31440269 5.69264057 3.34863281 9.96264648 C3.35824036 10.93052597 3.3678479 11.89840546 3.37774658 12.89561462 C3.38199646 13.93939774 3.38624634 14.98318085 3.390625 16.05859375 C3.39632507 17.13246841 3.40202515 18.20634308 3.40789795 19.3127594 C3.41734659 21.5848797 3.42388139 23.85701371 3.42773438 26.12915039 C3.43745203 29.60782669 3.46848214 33.08591521 3.5 36.56445312 C3.5065289 38.77082982 3.51177981 40.97721074 3.515625 43.18359375 C3.5279718 44.22535263 3.5403186 45.26711151 3.55303955 46.34043884 C3.55003845 47.31147049 3.54703735 48.28250214 3.54394531 49.28295898 C3.54941376 50.561782 3.54941376 50.561782 3.55499268 51.86643982 C3.10463278 54.71088406 2.11816287 56.08232114 0.1875 58.1875 C-5.15954638 60.28416341 -11.80508283 59.58181409 -17.3125 58.5 C-19.8125 57.1875 -19.8125 57.1875 -20.94287109 55.00512695 C-21.92183577 51.83324841 -22.13224296 49.10987262 -22.2265625 45.79296875 C-22.26523437 44.59091797 -22.30390625 43.38886719 -22.34375 42.15039062 C-22.3746875 40.90451172 -22.405625 39.65863281 -22.4375 38.375 C-22.47617187 37.10978516 -22.51484375 35.84457031 -22.5546875 34.54101562 C-22.64880657 31.42332149 -22.73444361 28.30563086 -22.8125 25.1875 C-39.45057161 26.39575854 -52.7389343 31.7193707 -64.81640625 43.4296875 C-66.8125 45.1875 -66.8125 45.1875 -68.8125 45.1875 C-69.06515625 45.75597656 -69.3178125 46.32445312 -69.578125 46.91015625 C-70.9702975 49.47862641 -72.64537454 51.42179186 -74.5625 53.625 C-80.26581344 60.67882481 -84.56326033 68.27328532 -85.38305664 77.40429688 C-85.46568253 78.30112183 -85.54830841 79.19794678 -85.63343811 80.12194824 C-85.69252853 80.80358032 -85.75161896 81.4852124 -85.8125 82.1875 C-84.5988678 82.19558685 -83.3852356 82.20367371 -82.13482666 82.21200562 C-70.65988079 82.28971661 -59.18504986 82.37751763 -47.71025467 82.47502708 C-41.81190563 82.52482985 -35.91357312 82.57116062 -30.01513672 82.609375 C-24.31568365 82.646431 -18.61637454 82.69284452 -12.91704559 82.74556351 C-10.74994194 82.76400004 -8.58280755 82.77914697 -6.41565704 82.79084396 C26.01582618 82.97204935 26.01582618 82.97204935 36 91.625 C40.14522546 96.48083554 41.38593007 99.84916003 42.1875 106.1875 C23.23784291 106.25757283 4.28821211 106.31047971 -14.66154766 106.34293652 C-23.46020017 106.35840716 -32.2587722 106.37950043 -41.05737305 106.41381836 C-48.72599793 106.44371469 -56.39456453 106.46307357 -64.06324607 106.46976548 C-68.12398577 106.47367735 -72.18455871 106.48287482 -76.24524498 106.50469017 C-80.0676757 106.52505907 -83.88987101 106.53133302 -87.71235085 106.52682304 C-89.11480107 106.52764807 -90.5172592 106.53361148 -91.91966248 106.54511642 C-93.83588457 106.56006493 -95.75223309 106.55466072 -97.66850281 106.54826355 C-98.74054805 106.55102893 -99.81259329 106.55379431 -100.91712475 106.55664349 C-105.46298914 105.97707224 -108.89699159 103.68611009 -111.8125 100.1875 C-117.02041396 84.56375812 -110.8607795 66.42582526 -104.0769043 52.32080078 C-91.90679143 28.25647877 -70.08101395 11.57994891 -44.8125 3.1875 C-10.61768988 -6.7194076 -10.61768988 -6.7194076 0 0 Z " fill="#F7920F" transform="translate(899.8125,381.8125)"/>
<path d="M0 0 C1.27101563 -0.01224609 2.54203125 -0.02449219 3.8515625 -0.03710938 C5.07617188 -0.03904297 6.30078125 -0.04097656 7.5625 -0.04296875 C8.67753906 -0.04707764 9.79257812 -0.05118652 10.94140625 -0.05541992 C14.82625559 0.25312295 17.72721277 1.14199621 20.75 3.625 C23.84752576 7.4969072 23.15496135 12.28058003 23.16113281 16.9699707 C23.16858017 18.31679428 23.16858017 18.31679428 23.17617798 19.69082642 C23.190798 22.66498579 23.19760148 25.63909182 23.203125 28.61328125 C23.20887674 30.67970278 23.21463447 32.74612428 23.22039795 34.81254578 C23.23090759 39.14773813 23.23675045 43.48291193 23.24023438 47.81811523 C23.24571789 53.36987273 23.26974314 58.92138482 23.29820633 64.47306538 C23.31684143 68.74275933 23.32203879 73.01239429 23.32357025 77.28212547 C23.32659551 79.32862883 23.33461977 81.37513118 23.34775543 83.42159462 C23.36483336 86.28686752 23.3629313 89.15154238 23.35644531 92.0168457 C23.37026749 93.28184654 23.37026749 93.28184654 23.3843689 94.57240295 C23.34942506 99.50687663 22.75020855 102.91590005 20 107.1875 C16.86941914 108.75279043 13.55920992 108.45441314 10.125 108.5 C9.04412109 108.54350586 9.04412109 108.54350586 7.94140625 108.58789062 C4.45731306 108.62959708 2.41248873 108.48599424 -0.4453125 106.41796875 C-3.3844042 102.20133217 -3.16344809 97.84638659 -3.20532227 92.84863281 C-3.21522186 92.11653091 -3.22512146 91.38442902 -3.23532104 90.63014221 C-3.2668382 88.21700239 -3.29165464 85.80384291 -3.31640625 83.390625 C-3.33698423 81.71481828 -3.35798093 80.03901666 -3.37937927 78.36322021 C-3.43451274 73.95741913 -3.48396042 69.55157188 -3.53222656 65.14569092 C-3.58250536 60.64786685 -3.63815811 56.15010963 -3.69335938 51.65234375 C-3.8008342 42.83078631 -3.9023028 34.00917076 -4 25.1875 C-5.45720459 25.10967285 -5.45720459 25.10967285 -6.94384766 25.03027344 C-8.21276855 24.95325195 -9.48168945 24.87623047 -10.7890625 24.796875 C-12.67939209 24.68811035 -12.67939209 24.68811035 -14.60791016 24.57714844 C-18 24.1875 -18 24.1875 -21.375 22.4375 C-23.96004859 17.26740282 -24.01448311 11.84061966 -23 6.1875 C-21.20413589 3.22289893 -20.15558596 1.50955267 -16.76000977 0.56323242 C-11.20514613 -0.1929759 -5.59653678 0.002838 0 0 Z " fill="#F6920F" transform="translate(749,380.8125)"/>
<path d="M0 0 C4.97784031 2.53588091 8.73417947 5.74503292 10.79296875 11.0390625 C12.07334983 15.55531577 12.42057282 19.33912317 10.4375 23.765625 C7.01265118 29.08903131 2.47047929 33.55492116 -2 38 C-2.7321875 38.7321875 -3.464375 39.464375 -4.21875 40.21875 C-9.46199255 45.12908826 -14.31459156 48.06354152 -21.625 47.9375 C-27.65924528 46.26132075 -31.46402543 43.10751883 -35 38 C-36.8058306 32.5825082 -36.79425975 27.93643743 -34.3125 22.8125 C-27.21172049 11.10029472 -14.5100407 -1.78890913 0 0 Z " fill="#1F55AE" transform="translate(397,251)"/>
<path d="M0 0 C4.36045847 2.22136563 7.13277421 4.43567029 9 9 C9.95677774 15.37851825 8.55454531 18.68013785 4.7734375 23.828125 C0.04958736 29.61328067 -5.30364108 35.9250062 -13.0078125 37.37890625 C-18.1497765 37.68194976 -21.16603442 36.29899364 -25 33 C-27.88953529 29.53255765 -28.55515513 26.49253104 -28.3359375 21.96484375 C-27.76787699 18.64235032 -26.13146781 16.48481274 -24 14 C-23.33226562 13.19046875 -22.66453125 12.3809375 -21.9765625 11.546875 C-15.55170354 4.04755157 -10.38772692 -1.31907643 0 0 Z " fill="#F7920F" transform="translate(761,328)"/>
</svg>
