<?xml version="1.0" encoding="UTF-8"?>
<svg version="1.1" xmlns="http://www.w3.org/2000/svg" width="500" height="140">
<path d="M0 0 C1 3 1 3 0.125 5.0625 C-4.47112833 17.06350175 -0.8035858 30.69717281 4.125 42.0625 C10.4995966 56.00533598 18.61704365 67.75242112 29 79 C29.68835937 79.75925781 30.37671875 80.51851563 31.0859375 81.30078125 C44.84558529 95.78614886 64.37746456 108.59051303 84.8125 109.5 C91.04489192 109.20671097 96.31530906 107.65588524 100.8203125 103.19921875 C107.18096958 95.28680717 107.86783332 86.86758623 107 77 C105.03465962 66.79085347 101.88225867 56.13732919 96.28515625 47.2890625 C95.86105469 46.53367188 95.43695313 45.77828125 95 45 C95.495 44.01 95.495 44.01 96 43 C108.52241083 60.33872268 116.74156027 80.33265908 114 102 C113.12832763 105.42474322 111.98222875 108.08860152 110 111 C109.4225 111.928125 108.845 112.85625 108.25 113.8125 C102.83441774 119.07764942 96.5282289 120.71080091 89.1875 121.3125 C63.26248797 120.79828489 42.09157889 103.06081867 25.01953125 85.35546875 C7.5436022 66.72458025 -5.78092738 43.00284054 -5.60791016 16.9934082 C-5.34541033 10.50582112 -3.90910727 5.30521701 0 0 Z " fill="#F78C1E" transform="translate(5,17)"/>
<path d="M0 0 C9.1317061 4.95787074 17.11747053 10.9446586 24.09375 18.6796875 C23.76375 19.3396875 23.43375 19.9996875 23.09375 20.6796875 C22.52269531 20.17179687 21.95164062 19.66390625 21.36328125 19.140625 C8.18037717 7.94877956 -5.76374873 3.39301015 -22.90625 4.6796875 C-28.60909539 5.7863303 -31.92508202 7.39772016 -35.90625 11.6796875 C-35.2978125 11.3909375 -34.689375 11.1021875 -34.0625 10.8046875 C-22.77747663 6.02514819 -11.04301692 6.09465608 0.38671875 10.45703125 C4.43983462 12.28765934 8.30815792 14.34715097 12.09375 16.6796875 C12.09375 17.3396875 12.09375 17.9996875 12.09375 18.6796875 C11.28035156 18.463125 10.46695313 18.2465625 9.62890625 18.0234375 C-3.48223265 14.83782895 -17.53186724 13.10785722 -29.90625 19.6796875 C-30.62167969 20.21980469 -31.33710938 20.75992187 -32.07421875 21.31640625 C-33.90625 22.6796875 -33.90625 22.6796875 -35.90625 22.6796875 C-36.19371094 23.2571875 -36.48117188 23.8346875 -36.77734375 24.4296875 C-37.49027315 25.85061253 -38.21066488 27.26784001 -38.94140625 28.6796875 C-39.28042969 29.3396875 -39.61945312 29.9996875 -39.96875 30.6796875 C-40.31035156 31.3396875 -40.65195312 31.9996875 -41.00390625 32.6796875 C-45.06888168 41.68950317 -43.13701789 52.0689103 -40.3046875 61.1484375 C-36.79596047 70.00846329 -31.36970966 77.73146836 -24.90625 84.6796875 C-25.23625 85.3396875 -25.56625 85.9996875 -25.90625 86.6796875 C-40.77221029 71.75280114 -50.55745909 53.08898062 -51.21875 31.6796875 C-51.00044485 21.74038255 -48.23049525 12.47913467 -41.90625 4.6796875 C-30.05343425 -5.41715554 -14.00718236 -6.26078605 0 0 Z " fill="#0070BB" transform="translate(57.90625,3.3203125)"/>
<path d="M0 0 C2.26849666 3.65172633 2.3895951 7.0127118 2.625 11.25 C2.69976562 12.51328125 2.77453125 13.7765625 2.8515625 15.078125 C2.90054688 16.04234375 2.94953125 17.0065625 3 18 C4.32 18 5.64 18 7 18 C6.69106068 16.3743193 6.3777305 14.74947252 6.0625 13.125 C5.80146484 11.76761719 5.80146484 11.76761719 5.53515625 10.3828125 C5.10036299 8.00043683 5.10036299 8.00043683 4 6 C5.3125 3.375 5.3125 3.375 7 1 C9 1 9 1 10.4375 2.3125 C10.953125 2.869375 11.46875 3.42625 12 4 C12.556875 4.556875 13.11375 5.11375 13.6875 5.6875 C14.120625 6.120625 14.55375 6.55375 15 7 C14.505 7.495 14.01 7.99 13.5 8.5 C11.72956559 11.45072401 11.82737757 13.51720306 12.08984375 16.90234375 C11.97563761 19.56880874 11.08155539 21.58017763 10 24 C2 24 -6 24 -14 24 C-17.07940904 24.05870624 -20.01852493 24.18894739 -23 25 C-24.69882448 27.49759982 -24.69882448 27.49759982 -26 30 C-29 30.5625 -29 30.5625 -32 30 C-33.875 28.125 -33.875 28.125 -35 26 C-35 25.34 -35 24.68 -35 24 C-37.86734521 24.0311941 -37.86734521 24.0311941 -41 25 C-42.36176581 26.98075027 -43.69593116 28.98079663 -45 31 C-47.25 32.125 -47.25 32.125 -50 32 C-52.79149028 30.87196761 -55.39537364 29.5059006 -58 28 C-58 27.01 -58 26.02 -58 25 C-56.96875 25.2475 -55.9375 25.495 -54.875 25.75 C-50.17748885 26.05306524 -48.59258142 24.89158993 -45 22 C-45.350625 21.4225 -45.70125 20.845 -46.0625 20.25 C-47.16413578 17.60607414 -46.96737246 16.63828852 -46 14 C-45.67 13.34 -45.34 12.68 -45 12 C-42.80201017 12.98530579 -41.17947452 13.81304737 -39.5 15.5625 C-37.72539815 17.26316011 -36.38993744 17.58794182 -34 18 C-33.690625 16.9171875 -33.690625 16.9171875 -33.375 15.8125 C-31.57530116 12.13129782 -29.30270796 10.37794973 -26 8 C-24.67323492 7.64141484 -23.34164079 7.2981424 -22 7 C-21.67 6.01 -21.34 5.02 -21 4 C-15.72 3.01 -10.44 2.02 -5 1 C-7 7 -7 7 -9.1640625 8.2421875 C-9.97617188 8.45101562 -10.78828125 8.65984375 -11.625 8.875 C-12.44226563 9.09929688 -13.25953125 9.32359375 -14.1015625 9.5546875 C-14.72804687 9.70164062 -15.35453125 9.84859375 -16 10 C-10.02264359 16.02956054 -10.02264359 16.02956054 -2 18 C-2.23396484 17.11248047 -2.23396484 17.11248047 -2.47265625 16.20703125 C-4.49087068 8.0138826 -4.49087068 8.0138826 -3 4 C-1.4375 1.6875 -1.4375 1.6875 0 0 Z M-24 12 C-24.33 13.98 -24.66 15.96 -25 18 C-22.36 18 -19.72 18 -17 18 C-18.61594832 15.95880212 -20.2856382 13.95927063 -22 12 C-22.66 12 -23.32 12 -24 12 Z " fill="#0070BB" transform="translate(232,26)"/>
<path d="M0 0 C2 0 2 0 3.5 1.4375 C3.995 1.953125 4.49 2.46875 5 3 C5.99 3.495 5.99 3.495 7 4 C6.49396008 6.16874252 6.00016187 7.99967627 5 10 C4.79670732 11.82963411 4.63527804 13.66408368 4.5 15.5 C4.11111111 20.77777778 4.11111111 20.77777778 3 23 C-13.17 23 -29.34 23 -46 23 C-46.66 24.32 -47.32 25.64 -48 27 C-50.12501407 29.60797182 -51.68287258 30.49704205 -55 31 C-57.140625 30.44140625 -57.140625 30.44140625 -59.25 29.5625 C-60.30960937 29.13130859 -60.30960937 29.13130859 -61.390625 28.69140625 C-61.92171875 28.46324219 -62.4528125 28.23507813 -63 28 C-63 27.34 -63 26.68 -63 26 C-61.93458984 25.80083984 -61.93458984 25.80083984 -60.84765625 25.59765625 C-59.92855469 25.42105469 -59.00945312 25.24445312 -58.0625 25.0625 C-57.14597656 24.88847656 -56.22945313 24.71445312 -55.28515625 24.53515625 C-53.04710156 24.22285012 -53.04710156 24.22285012 -52 23 C-53.32 22.34 -54.64 21.68 -56 21 C-56.50423019 15.70558305 -55.18923033 13.18586481 -52 9 C-49.625 9.25 -49.625 9.25 -47 10 C-45.2058242 12.56310828 -45 13.83119306 -45 17 C-44.01 16.67 -43.02 16.34 -42 16 C-41.64587656 14.67203709 -41.31478446 13.33783393 -41 12 C-39.8125 10.25 -39.8125 10.25 -38 9 C-34.6057221 8.56668793 -32.66675524 8.64907619 -29.625 10.25 C-28 12 -28 12 -28 16 C-26.35 16.33 -24.7 16.66 -23 17 C-22.67 15.35 -22.34 13.7 -22 12 C-21.01 11.67 -20.02 11.34 -19 11 C-19 12.65 -19 14.3 -19 16 C-18.01 16.33 -17.02 16.66 -16 17 C-15.896875 16.21625 -15.79375 15.4325 -15.6875 14.625 C-15 12 -15 12 -12 10 C-12 12.31 -12 14.62 -12 17 C-11.34 17 -10.68 17 -10 17 C-9.67 15.35 -9.34 13.7 -9 12 C-8.01 11.67 -7.02 11.34 -6 11 C-5.505 13.475 -5.505 13.475 -5 16 C-3.35 16.33 -1.7 16.66 0 17 C-0.31008884 15.39536551 -0.62316287 13.79130769 -0.9375 12.1875 C-1.11152344 11.29417969 -1.28554688 10.40085937 -1.46484375 9.48046875 C-1.97741153 6.88602829 -1.97741153 6.88602829 -3 4 C-1.6875 1.8125 -1.6875 1.8125 0 0 Z " fill="#0070BB" transform="translate(368,27)"/>
<path d="M0 0 C1.33841672 0.31229724 2.67139075 0.64830932 4 1 C4.66 0.79375 5.32 0.5875 6 0.375 C8 0 8 0 10.015625 0.99609375 C12.81575521 3.82378429 13.148711 6.89937928 13.75 10.6875 C13.87503906 11.38939453 14.00007813 12.09128906 14.12890625 12.81445312 C14.43417555 14.54039881 14.71910154 16.26992084 15 18 C18.3 17.67 21.6 17.34 25 17 C23.5459375 16.4740625 23.5459375 16.4740625 22.0625 15.9375 C19 14 19 14 18 10.5 C18 7 18 7 20 4 C22.56235386 3.13916427 25.00666585 2.43326741 27.625 1.8125 C28.68460937 1.54663086 28.68460937 1.54663086 29.765625 1.27539062 C31.50784364 0.83983596 33.25361516 0.41853749 35 0 C34.75390625 2.8828125 34.75390625 2.8828125 34 6 C32.15234375 7.2421875 32.15234375 7.2421875 29.9375 7.875 C29.20402344 8.09929688 28.47054688 8.32359375 27.71484375 8.5546875 C27.14894531 8.70164062 26.58304687 8.84859375 26 9 C26.78375 9.78375 27.5675 10.5675 28.375 11.375 C33 16 33 16 33.1875 19 C33 22 33 22 32 24 C28.70840684 24.05790353 25.41694397 24.09356261 22.125 24.125 C20.71927734 24.15013672 20.71927734 24.15013672 19.28515625 24.17578125 C17.94130859 24.18544922 17.94130859 24.18544922 16.5703125 24.1953125 C15.74289551 24.20578613 14.91547852 24.21625977 14.06298828 24.22705078 C12 24 12 24 10 22 C8.33157466 22.32441604 6.66519519 22.65939189 5 23 C1.6875 22.5625 1.6875 22.5625 -1 22 C-0.63166144 15.61546499 -0.63166144 15.61546499 2.4375 12.625 C5 11 5 11 7 10 C7.33 9.01 7.66 8.02 8 7 C4.7 6.34 1.4 5.68 -2 5 C-2 2 -2 2 0 0 Z M8 14 C7.67 14.66 7.34 15.32 7 16 C7.99 15.67 8.98 15.34 10 15 C9.34 14.67 8.68 14.34 8 14 Z " fill="#006FBC" transform="translate(398,26)"/>
<path d="M0 0 C2 0 2 0 3.4375 1.3125 C4.2109375 2.1478125 4.2109375 2.1478125 5 3 C5.556875 3.556875 6.11375 4.11375 6.6875 4.6875 C7.120625 5.120625 7.55375 5.55375 8 6 C7.505 6.495 7.01 6.99 6.5 7.5 C4.72956559 10.45072401 4.82737757 12.51720306 5.08984375 15.90234375 C4.9758651 18.56349738 4.0245502 20.55924119 3 23 C1.96069336 22.99887207 0.92138672 22.99774414 -0.14941406 22.99658203 C-4.01145813 23.00025758 -7.87225399 23.04308558 -11.73388672 23.09765625 C-13.40405227 23.1158067 -15.07436793 23.12338644 -16.74462891 23.12011719 C-19.14863978 23.11725697 -21.54954474 23.15259432 -23.953125 23.1953125 C-24.69806213 23.18621857 -25.44299927 23.17712463 -26.21051025 23.16775513 C-28.61108071 23.17150259 -28.61108071 23.17150259 -32 24 C-34.38038405 26.88104305 -34.38038405 26.88104305 -36 30 C-39.16810233 31.29604186 -40.96756233 31.40440248 -44.1640625 30.15234375 C-46.15799259 29.16947008 -48.08697955 28.13130397 -50 27 C-49.505 25.515 -49.505 25.515 -49 24 C-47.9275 24.226875 -46.855 24.45375 -45.75 24.6875 C-42.08039785 25.36878965 -42.08039785 25.36878965 -39.6875 23.5625 C-39.130625 23.046875 -38.57375 22.53125 -38 22 C-37.34 22 -36.68 22 -36 22 C-36.350625 21.278125 -36.70125 20.55625 -37.0625 19.8125 C-38.10409017 16.6877295 -37.89096572 15.11838004 -37 12 C-35.68 12 -34.36 12 -33 12 C-32.566875 12.639375 -32.13375 13.27875 -31.6875 13.9375 C-30.03808944 16.39687765 -30.03808944 16.39687765 -26.3125 16.75 C-25.219375 16.8325 -24.12625 16.915 -23 17 C-22.67 15.35 -22.34 13.7 -22 12 C-20.68 11.67 -19.36 11.34 -18 11 C-18.33 12.98 -18.66 14.96 -19 17 C-18.01 17 -17.02 17 -16 17 C-15.896875 16.401875 -15.79375 15.80375 -15.6875 15.1875 C-14.91123545 12.71756736 -13.92911079 11.67748765 -12 10 C-10.66667905 12.6666419 -11.32897967 14.16680303 -12 17 C-11.34 17 -10.68 17 -10 17 C-9.8453125 16.071875 -9.8453125 16.071875 -9.6875 15.125 C-9 13 -9 13 -6 11 C-5 12 -5 12 -4.9375 14.5625 C-4.958125 15.366875 -4.97875 16.17125 -5 17 C-3.35 17 -1.7 17 0 17 C-0.30893932 15.3743193 -0.6222695 13.74947252 -0.9375 12.125 C-1.11152344 11.22007813 -1.28554688 10.31515625 -1.46484375 9.3828125 C-1.89963701 7.00043683 -1.89963701 7.00043683 -3 5 C-1.6875 2.375 -1.6875 2.375 0 0 Z " fill="#006FBC" transform="translate(480,27)"/>
<path d="M0 0 C0.78375 0.165 1.5675 0.33 2.375 0.5 C5.09522679 1.23945377 5.09522679 1.23945377 8 0 C11.46364519 2.03929338 12.79416165 3.41831348 14.14453125 7.234375 C14.36496094 8.39453125 14.58539063 9.5546875 14.8125 10.75 C15.04582031 11.92046875 15.27914063 13.0909375 15.51953125 14.296875 C15.67808594 15.18890625 15.83664062 16.0809375 16 17 C19.63 17 23.26 17 27 17 C26.773125 16.071875 26.54625 15.14375 26.3125 14.1875 C26 11 26 11 27.4375 9.125 C27.953125 8.75375 28.46875 8.3825 29 8 C31.95684115 10.95684115 33.28955015 12.97872792 33.3125 17.125 C33 21 33 21 32 24 C28.89591193 24.05807043 25.7919636 24.09361914 22.6875 24.125 C21.36588867 24.15013672 21.36588867 24.15013672 20.01757812 24.17578125 C19.17001953 24.18222656 18.32246094 24.18867187 17.44921875 24.1953125 C16.27879028 24.21102295 16.27879028 24.21102295 15.0847168 24.22705078 C13 24 13 24 10 22 C8.32995171 22.31595508 6.66362417 22.65179959 5 23 C1.6875 22.5625 1.6875 22.5625 -1 22 C-0.62367503 16.60600878 0.99242379 14.53048381 5 11 C6.77385435 9.28949759 7.89821095 8.20357811 9 6 C8.37351562 6.01160156 7.74703125 6.02320313 7.1015625 6.03515625 C6.28429687 6.04417969 5.46703125 6.05320312 4.625 6.0625 C3.81289063 6.07410156 3.00078125 6.08570313 2.1640625 6.09765625 C0 6 0 6 -2 5 C-1.125 1.125 -1.125 1.125 0 0 Z M9 14 C8.34 14.66 7.68 15.32 7 16 C7.99 16 8.98 16 10 16 C9.67 15.34 9.34 14.68 9 14 Z " fill="#006FBC" transform="translate(258,26)"/>
<path d="M0 0 C0 1.65 0 3.3 0 5 C2.64 5 5.28 5 8 5 C8.66 6.98 9.32 8.96 10 11 C10.99 9.02 11.98 7.04 13 5 C14.65 5 16.3 5 18 5 C14.88 21.12 14.88 21.12 10 26 C6.375 26.125 6.375 26.125 3 26 C3 24.68 3 23.36 3 22 C4.32 22 5.64 22 7 22 C6.27991594 17.39146203 4.68704061 13.32762591 3 9 C2.01 9 1.02 9 0 9 C0 11.31 0 13.62 0 16 C0.66 16 1.32 16 2 16 C2.33 17.32 2.66 18.64 3 20 C-2.75 21.125 -2.75 21.125 -5 20 C-5 16.37 -5 12.74 -5 9 C-5.66 9 -6.32 9 -7 9 C-7 7.68 -7 6.36 -7 5 C-6.34 5 -5.68 5 -5 5 C-5 3.68 -5 2.36 -5 1 C-3 0 -3 0 0 0 Z " fill="#0070BC" transform="translate(340,81)"/>
<path d="M0 0 C0.7734375 -0.01675781 1.546875 -0.03351563 2.34375 -0.05078125 C5.00957629 0.39835253 5.85732602 1.20702933 7.5 3.3125 C8.1875 5.5 8.1875 5.5 8.5 7.3125 C6.52 7.3125 4.54 7.3125 2.5 7.3125 C2.17 6.6525 1.84 5.9925 1.5 5.3125 C0.18 5.6425 -1.14 5.9725 -2.5 6.3125 C-1.78972656 6.57804687 -1.07945312 6.84359375 -0.34765625 7.1171875 C0.57144531 7.47039062 1.49054688 7.82359375 2.4375 8.1875 C3.35402344 8.53554687 4.27054688 8.88359375 5.21484375 9.2421875 C7.5 10.3125 7.5 10.3125 8.5 12.3125 C8.95913043 17.70728261 8.95913043 17.70728261 7.125 20.125 C4.20620982 22.25796206 2.61224537 22.41222861 -0.9375 22.0625 C-2.11119141 21.96195313 -2.11119141 21.96195313 -3.30859375 21.859375 C-5.89880643 21.21297611 -6.85922897 20.38639382 -8.5 18.3125 C-9.1875 16.125 -9.1875 16.125 -9.5 14.3125 C-7.85 13.9825 -6.2 13.6525 -4.5 13.3125 C-3.51 14.7975 -3.51 14.7975 -2.5 16.3125 C0.08380177 16.56280977 0.08380177 16.56280977 2.5 16.3125 C2.83 15.6525 3.16 14.9925 3.5 14.3125 C2.80132812 14.13074219 2.10265625 13.94898437 1.3828125 13.76171875 C0.47273437 13.51035156 -0.43734375 13.25898437 -1.375 13 C-2.27992188 12.75636719 -3.18484375 12.51273438 -4.1171875 12.26171875 C-6.5 11.3125 -6.5 11.3125 -8.5 8.3125 C-8.3125 5.25 -8.3125 5.25 -7.5 2.3125 C-4.40219052 0.24729368 -3.5459519 0.01772976 0 0 Z " fill="#006FBC" transform="translate(142.5,79.6875)"/>
<path d="M0 0 C1.0828125 -0.2784375 1.0828125 -0.2784375 2.1875 -0.5625 C4 -1 4 -1 6.1875 -0.1875 C8 1 8 1 9 3 C9.07065617 5.04055005 9.08421976 7.08334257 9.0625 9.125 C9.05347656 10.22070312 9.04445313 11.31640625 9.03515625 12.4453125 C9.02355469 13.28835937 9.01195312 14.13140625 9 15 C7.35 15 5.7 15 4 15 C3.67 11.37 3.34 7.74 3 4 C2.01 4 1.02 4 0 4 C0 7.63 0 11.26 0 15 C-1.65 15 -3.3 15 -5 15 C-5.33 11.37 -5.66 7.74 -6 4 C-6.99 4 -7.98 4 -9 4 C-9 7.63 -9 11.26 -9 15 C-10.65 15 -12.3 15 -14 15 C-14 10.05 -14 5.1 -14 0 C-8.30976006 -0.81289142 -5.38028907 -0.8121191 0 0 Z " fill="#0070BB" transform="translate(421,86)"/>
<path d="M0 0 C2.42479736 3.63719605 2.38662577 5.85703482 2.625 10.1875 C2.69976562 11.45980469 2.77453125 12.73210938 2.8515625 14.04296875 C2.90054688 15.01878906 2.94953125 15.99460937 3 17 C6.3 16.67 9.6 16.34 13 16 C12.608125 15.2575 12.21625 14.515 11.8125 13.75 C11 11 11 11 12.25 8.6875 C14 7 14 7 16 7 C19.40357261 13.3987165 18.89023588 14.98787711 18 23 C11.73 23 5.46 23 -1 23 C-2.26713652 19.19859044 -2.47841524 15.46778714 -2.75 11.5 C-2.81832031 10.72785156 -2.88664063 9.95570312 -2.95703125 9.16015625 C-3.34630864 3.4008472 -3.34630864 3.4008472 -1.49316406 1.25585938 C-0.75404785 0.63420898 -0.75404785 0.63420898 0 0 Z " fill="#0070BC" transform="translate(157,27)"/>
<path d="M0 0 C5.28 0 10.56 0 16 0 C16 1.32 16 2.64 16 4 C12.37 4 8.74 4 5 4 C5 5.32 5 6.64 5 8 C8.3 8 11.6 8 15 8 C15 9.32 15 10.64 15 12 C11.7 12 8.4 12 5 12 C5 13.65 5 15.3 5 17 C8.63 17 12.26 17 16 17 C16 18.32 16 19.64 16 21 C10.72 21 5.44 21 0 21 C0 14.07 0 7.14 0 0 Z " fill="#0071BC" transform="translate(222,80)"/>
<path d="M0 0 C2.87241402 1.43620701 3.71424684 2.16655327 4.75 5.1875 C4.87375 6.0846875 4.87375 6.0846875 5 7 C3.02 7.33 1.04 7.66 -1 8 C-1.66 7.01 -2.32 6.02 -3 5 C-5.75641416 5.49756092 -5.75641416 5.49756092 -8 7 C-8.30523962 11.65088715 -8.30523962 11.65088715 -7 16 C-4.52733235 15.65555119 -4.52733235 15.65555119 -2 15 C-1.67 14.34 -1.34 13.68 -1 13 C1.97 13.495 1.97 13.495 5 14 C4.08986632 17.06135874 3.29125962 18.74300621 0.875 20.875 C-3.04149091 22.40753992 -6.01650187 22.31397224 -10 21 C-13.00307563 18.74769328 -13.82881254 17.08581757 -14.41015625 13.3984375 C-14.65523105 8.73573228 -14.51840727 5.85286357 -12.0625 1.8125 C-7.9388755 -0.62801246 -4.68137629 -0.80502172 0 0 Z " fill="#0070BA" transform="translate(382,80)"/>
<path d="M0 0 C2.06677039 1.62639317 2.90120297 2.51669561 3.43359375 5.12109375 C3.44405682 11.3256915 3.44405682 11.3256915 1.3125 14.5625 C-1.37484955 16.23301458 -2.89156165 16.34538204 -6 16 C-6.33 17.65 -6.66 19.3 -7 21 C-8.65 21 -10.3 21 -12 21 C-12 14.07 -12 7.14 -12 0 C-3.6 -1.2 -3.6 -1.2 0 0 Z M-7 4 C-7 6.31 -7 8.62 -7 11 C-6.01 11.33 -5.02 11.66 -4 12 C-1.71271266 10.16116119 -1.71271266 10.16116119 -1.875 7.375 C-1.91625 6.59125 -1.9575 5.8075 -2 5 C-3.65 4.67 -5.3 4.34 -7 4 Z " fill="#006EBC" transform="translate(445,86)"/>
<path d="M0 0 C1.65 0 3.3 0 5 0 C5 6.93 5 13.86 5 21 C-5 22 -5 22 -8.125 20.625 C-10.48264934 17.32429092 -10.71901619 15.1278232 -10.48828125 11.1328125 C-10 9 -10 9 -7.8125 6.375 C-4.59984509 4.80436871 -3.3276274 4.85909918 0 6 C0 4.02 0 2.04 0 0 Z M-3 9 C-5.23845015 10.82915641 -5.23845015 10.82915641 -5.3125 13.5 C-5.209375 14.325 -5.10625 15.15 -5 16 C-3.515 16.99 -3.515 16.99 -2 18 C-1.34 17.67 -0.68 17.34 0 17 C0 14.69 0 12.38 0 10 C-0.99 9.67 -1.98 9.34 -3 9 Z " fill="#006FBC" transform="translate(197,80)"/>
<path d="M0 0 C4.76207826 0.61730644 7.22263442 2.92747817 10.375 6.4375 C12.27936131 9.83223103 12.69767587 12.56538962 12.375 16.4375 C11.375 17.4375 11.375 17.4375 8.8125 17.9375 C3.71429265 17.19594257 0.8473217 14.10042647 -2.625 10.4375 C-4.11606457 7.45537087 -3.74441467 4.72140342 -3.625 1.4375 C-2.625 0.4375 -2.625 0.4375 0 0 Z " fill="#F78A1E" transform="translate(85.625,43.5625)"/>
<path d="M0 0 C1.98 0 3.96 0 6 0 C6.99 1.98 7.98 3.96 9 6 C9.66 4.02 10.32 2.04 11 0 C12.98 0 14.96 0 17 0 C16.07123493 2.75323238 15.13243408 5.50231935 14.1875 8.25 C13.92646484 9.02730469 13.66542969 9.80460937 13.39648438 10.60546875 C10.72045455 18.33622159 10.72045455 18.33622159 8 21 C4.8125 21.25 4.8125 21.25 2 21 C1.67 19.68 1.34 18.36 1 17 C2.32 16.67 3.64 16.34 5 16 C3.41078475 10.63904723 1.81027062 5.29156027 0 0 Z " fill="#006FBC" transform="translate(482,86)"/>
<path d="M0 0 C1.38226016 2.76452033 1.09525387 5.0461363 1.0625 8.125 C1.05347656 9.22070312 1.04445313 10.31640625 1.03515625 11.4453125 C1.02355469 12.28835937 1.01195312 13.13140625 1 14 C-9.15317287 15.61050328 -9.15317287 15.61050328 -12.6875 13.0625 C-13.120625 12.381875 -13.55375 11.70125 -14 11 C-13.4375 8.6875 -13.4375 8.6875 -12 6 C-9.72037377 4.65223022 -7.51912228 3.88635784 -5 3 C-7.64 3.33 -10.28 3.66 -13 4 C-12.8125 2.125 -12.8125 2.125 -12 0 C-7.70077157 -2.78185369 -4.59261707 -1.76639118 0 0 Z M-8 8 C-8 8.99 -8 9.98 -8 11 C-6.68 10.34 -5.36 9.68 -4 9 C-5.32 8.67 -6.64 8.34 -8 8 Z " fill="#0071BB" transform="translate(463,87)"/>
<path d="M0 0 C2.77042109 2.77042109 2.39796106 4.76533805 2.625 8.625 C2.69976562 9.81351563 2.77453125 11.00203125 2.8515625 12.2265625 C2.92503906 13.59941406 2.92503906 13.59941406 3 15 C1.61361328 14.98066406 1.61361328 14.98066406 0.19921875 14.9609375 C-3.01804719 14.90400595 -3.01804719 14.90400595 -6.1875 15.625 C-9 16 -9 16 -12 14 C-12.1875 10.875 -12.1875 10.875 -12 8 C-9.36 6.68 -6.72 5.36 -4 4 C-6.64 4.33 -9.28 4.66 -12 5 C-11.25 2.5625 -11.25 2.5625 -10 0 C-6.69285946 -1.65357027 -3.49062004 -0.83471349 0 0 Z M-6 9 C-6.33 9.99 -6.66 10.98 -7 12 C-5.68 11.67 -4.36 11.34 -3 11 C-3 10.34 -3 9.68 -3 9 C-3.99 9 -4.98 9 -6 9 Z " fill="#0071BB" transform="translate(165,86)"/>
<path d="M0 0 C2.4375 2.125 2.4375 2.125 4 5 C3.94016186 8.47061229 3.67167343 10.88054428 1.875 13.875 C-1.03582092 15.62149255 -3.6431158 15.82332188 -7 16 C-9.64816011 15.21270916 -10.62884529 14.47719891 -12.3125 12.3125 C-13.31858949 8.92838082 -12.80442399 6.40333226 -12 3 C-8.79905159 -1.36492965 -4.94820661 -1.41377332 0 0 Z M-6 4 C-6.66 4.66 -7.32 5.32 -8 6 C-7.67958603 8.60280568 -7.67958603 8.60280568 -7 11 C-6.01 11.33 -5.02 11.66 -4 12 C-2.35444301 10.77190909 -2.35444301 10.77190909 -1 9 C-1.22757731 6.83700789 -1.22757731 6.83700789 -2 5 C-3.89179203 4.3185177 -3.89179203 4.3185177 -6 4 Z " fill="#006FBC" transform="translate(401,86)"/>
<path d="M0 0 C2.20859155 2.88077158 2 4.2322846 2 8 C-1.3 8 -4.6 8 -8 8 C-8 8.66 -8 9.32 -8 10 C-4.7 9.67 -1.4 9.34 2 9 C0.9375 11.4375 0.9375 11.4375 -1 14 C-5.05561688 15.27676828 -7.06676307 15.43683431 -10.9375 13.625 C-13.54853806 10.30186066 -13.52426701 8.23629217 -13.46875 4.12109375 C-12.89349726 1.51807511 -12.08835141 0.62044249 -10 -1 C-5.98367013 -2.33877662 -3.90367509 -1.49049413 0 0 Z M-6 2 C-6.99 3.485 -6.99 3.485 -8 5 C-6.35 5 -4.7 5 -3 5 C-3.99 4.01 -4.98 3.02 -6 2 Z " fill="#006FBB" transform="translate(261,87)"/>
<path d="M0 0 C1.65 0 3.3 0 5 0 C5.33 3.63 5.66 7.26 6 11 C6.66 11 7.32 11 8 11 C9.14814997 8.70370006 9.30769809 6.92301914 9.5625 4.375 C9.64628906 3.55773437 9.73007813 2.74046875 9.81640625 1.8984375 C9.87699219 1.27195312 9.93757812 0.64546875 10 0 C11.65 0 13.3 0 15 0 C15 4.95 15 9.9 15 15 C13.02 15 11.04 15 9 15 C7.948125 15.226875 6.89625 15.45375 5.8125 15.6875 C3 16 3 16 1.3359375 14.9375 C-0.63927504 12.07286427 -0.28944718 9.74472186 -0.1875 6.3125 C-0.16042969 5.13300781 -0.13335937 3.95351562 -0.10546875 2.73828125 C-0.07066406 1.83464844 -0.03585938 0.93101563 0 0 Z " fill="#0070BC" transform="translate(170,86)"/>
<path d="M0 0 C1.44207941 2.88415883 1.09394887 5.41721528 1.0625 8.625 C1.05347656 9.81351563 1.04445313 11.00203125 1.03515625 12.2265625 C1.02355469 13.14179687 1.01195312 14.05703125 1 15 C-0.65 15 -2.3 15 -4 15 C-4.33 11.37 -4.66 7.74 -5 4 C-5.99 4 -6.98 4 -8 4 C-8 7.63 -8 11.26 -8 15 C-9.65 15 -11.3 15 -13 15 C-13 10.05 -13 5.1 -13 0 C-4.08139535 -1.36046512 -4.08139535 -1.36046512 0 0 Z " fill="#0071BB" transform="translate(480,86)"/>
<path d="M0 0 C2 2 2 2 2 5 C0.35 5.33 -1.3 5.66 -3 6 C-3 5.34 -3 4.68 -3 4 C-4.32 4 -5.64 4 -7 4 C-7 6.31 -7 8.62 -7 11 C-6.01 11 -5.02 11 -4 11 C-3.67 10.34 -3.34 9.68 -3 9 C-1.35 9 0.3 9 2 9 C1.6875 11.375 1.6875 11.375 1 14 C-2.6045976 16.40306507 -4.01559675 16.25909758 -8.12109375 15.59375 C-10 15 -10 15 -12.0625 12.9375 C-13.30670018 9.03900612 -13.49984237 5.85792787 -12 2 C-7.89705715 -1.1487701 -4.9081884 -1.45014657 0 0 Z " fill="#006FBC" transform="translate(322,86)"/>
<path d="M0 0 C1.375 2.5625 1.375 2.5625 2 5 C0.35 5.33 -1.3 5.66 -3 6 C-3 5.34 -3 4.68 -3 4 C-4.32 4 -5.64 4 -7 4 C-7 6.31 -7 8.62 -7 11 C-6.01 11 -5.02 11 -4 11 C-3.67 10.34 -3.34 9.68 -3 9 C-1.35 9 0.3 9 2 9 C1.52 13.56 1.52 13.56 -0.625 15.375 C-4.11044818 16.29222321 -6.53717926 15.94440566 -10 15 C-12.22782775 12.70255264 -12.98871991 11.17764145 -13.01953125 7.9609375 C-12.68929173 4.53392359 -12.48169736 2.48169736 -10 0 C-6.50128086 -1.37449681 -3.56483486 -1.08494974 0 0 Z " fill="#006EBD" transform="translate(277,86)"/>
<path d="M0 0 C1.125 3.75 1.125 3.75 0 6 C1.32 6.33 2.64 6.66 4 7 C2.97937414 9.7505002 2.34652466 10.81276969 -0.27734375 12.23046875 C-1.59412109 12.70419922 -1.59412109 12.70419922 -2.9375 13.1875 C-3.81277344 13.51105469 -4.68804687 13.83460937 -5.58984375 14.16796875 C-7.38959433 14.78927649 -9.19372956 15.39790985 -11 16 C-10.79375 15.38125 -10.5875 14.7625 -10.375 14.125 C-10.25125 13.42375 -10.1275 12.7225 -10 12 C-10.66 11.34 -11.32 10.68 -12 10 C-11.916552 6.16139201 -11.43459697 4.47184814 -8.8125 1.625 C-5.58028931 -0.24249951 -3.67176009 -0.34155908 0 0 Z " fill="#006EBC" transform="translate(145,38)"/>
<path d="M0 0 C3.9419115 1.27845778 5.8861477 2.41136702 8 6 C8.38871006 9.71088542 8.13369637 13.25650161 8 17 C3.71 17 -0.58 17 -5 17 C-5 15.02 -5 13.04 -5 11 C-2.36 10.67 0.28 10.34 3 10 C1.68 9.01 0.36 8.02 -1 7 C-0.67 4.69 -0.34 2.38 0 0 Z " fill="#0071BC" transform="translate(298,33)"/>
<path d="M0 0 C0 1.65 0 3.3 0 5 C0.99 5 1.98 5 3 5 C3 6.32 3 7.64 3 9 C2.01 9 1.02 9 0 9 C0 11.31 0 13.62 0 16 C0.99 16 1.98 16 3 16 C2.67 17.65 2.34 19.3 2 21 C0.02 20.67 -1.96 20.34 -4 20 C-6.64064927 7.93157813 -6.64064927 7.93157813 -5 2 C-2 0 -2 0 0 0 Z " fill="#0070BB" transform="translate(286,81)"/>
<path d="M0 0 C1.65 0 3.3 0 5 0 C5 6.93 5 13.86 5 21 C3.35 21 1.7 21 0 21 C0 14.07 0 7.14 0 0 Z " fill="#0071BC" transform="translate(241,80)"/>
<path d="M0 0 C0 1.32 0 2.64 0 4 C-1.32 4.33 -2.64 4.66 -4 5 C-4.33 8.3 -4.66 11.6 -5 15 C-6.65 15 -8.3 15 -10 15 C-10 10.05 -10 5.1 -10 0 C-3.25 -1.125 -3.25 -1.125 0 0 Z " fill="#006FBC" transform="translate(301,86)"/>
<path d="M0 0 C0.66 0 1.32 0 2 0 C3.15578988 3.6892813 3.16726606 7.21400405 3.1875 11.0625 C3.20167969 12.29097656 3.21585937 13.51945312 3.23046875 14.78515625 C3 18 3 18 1 21 C0.34 21 -0.32 21 -1 21 C-1.41824425 18.43938234 -1.80998366 15.87916435 -2.1875 13.3125 C-2.30802734 12.59126953 -2.42855469 11.87003906 -2.55273438 11.12695312 C-3.05905733 7.55002648 -3.14016524 5.31960982 -1.67578125 1.98046875 C-1.12277344 1.32691406 -0.56976563 0.67335938 0 0 Z " fill="#006EBD" transform="translate(381,29)"/>
<path d="M0 0 C3.5852638 3.5852638 2.95550532 9.1246543 3 14 C2.1875 17.6875 2.1875 17.6875 1 20 C0.34 20.33 -0.32 20.66 -1 21 C-2.49678874 15.22667199 -3.50620282 9.97319331 -3 4 C-1.5 1.5 -1.5 1.5 0 0 Z " fill="#006FBC" transform="translate(494,29)"/>
<path d="M0 0 C3.42227589 1.25483449 5.54080489 3.3651481 8 6 C7.34 7.32 6.68 8.64 6 10 C4.56344146 10.08131463 3.1255517 10.13933559 1.6875 10.1875 C0.48673828 10.23970703 0.48673828 10.23970703 -0.73828125 10.29296875 C-3.47851584 9.93801608 -4.29171079 9.10633718 -6 7 C-5.525625 6.566875 -5.05125 6.13375 -4.5625 5.6875 C-2.76313043 3.97690387 -2.76313043 3.97690387 -2 1 C-1.34 0.67 -0.68 0.34 0 0 Z " fill="#0070BC" transform="translate(464,26)"/>
<path d="M0 0 C1.65 0 3.3 0 5 0 C5 4.95 5 9.9 5 15 C3.35 15 1.7 15 0 15 C0 10.05 0 5.1 0 0 Z " fill="#0071BC" transform="translate(326,86)"/>
<path d="M0 0 C1.65 0 3.3 0 5 0 C5 4.95 5 9.9 5 15 C3.35 15 1.7 15 0 15 C0 10.05 0 5.1 0 0 Z " fill="#0071BB" transform="translate(302,86)"/>
<path d="M0 0 C1.65 0 3.3 0 5 0 C5 4.95 5 9.9 5 15 C3.35 15 1.7 15 0 15 C0 10.05 0 5.1 0 0 Z " fill="#0071BB" transform="translate(205,86)"/>
<path d="M0 0 C1.67004829 0.31595508 3.33637583 0.65179959 5 1 C6.32 1 7.64 1 9 1 C9.66 1.33 10.32 1.66 11 2 C10.34 3.32 9.68 4.64 9 6 C7.54176788 6.0270043 6.08339325 6.04639787 4.625 6.0625 C3.81289063 6.07410156 3.00078125 6.08570313 2.1640625 6.09765625 C0 6 0 6 -2 5 C-1.125 1.125 -1.125 1.125 0 0 Z " fill="#006FBB" transform="translate(278,52)"/>
<path d="M0 0 C1.65 1.65 3.3 3.3 5 5 C2.525 6.485 2.525 6.485 0 8 C-1.32 6.68 -2.64 5.36 -4 4 C-2.68 2.68 -1.36 1.36 0 0 Z " fill="#006EBD" transform="translate(167,51)"/>
<path d="M0 0 C1.65 0 3.3 0 5 0 C5 1.65 5 3.3 5 5 C3.35 5 1.7 5 0 5 C0 3.35 0 1.7 0 0 Z " fill="#0071BC" transform="translate(326,80)"/>
<path d="M0 0 C1.65 0 3.3 0 5 0 C5 1.65 5 3.3 5 5 C3.35 5 1.7 5 0 5 C0 3.35 0 1.7 0 0 Z " fill="#0071BC" transform="translate(302,80)"/>
<path d="M0 0 C1.65 0 3.3 0 5 0 C5 1.65 5 3.3 5 5 C3.35 5 1.7 5 0 5 C0 3.35 0 1.7 0 0 Z " fill="#0072BB" transform="translate(205,80)"/>
</svg>
