<?xml version="1.0" encoding="UTF-8"?>
<svg version="1.1" xmlns="http://www.w3.org/2000/svg" width="600" height="600">
<path d="M0 0 C198 0 396 0 600 0 C600 198 600 396 600 600 C402 600 204 600 0 600 C0 402 0 204 0 0 Z " fill="#FEFEFE" transform="translate(0,0)"/>
<path d="M0 0 C1.73168945 1.09008789 1.73168945 1.09008789 3.42578125 2.66015625 C4.45783691 3.61462646 4.45783691 3.61462646 5.51074219 4.58837891 C10.44372148 9.36750498 15.33344733 14.18659573 20.18188477 19.05151367 C22.05829475 20.93328274 23.93998969 22.80964738 25.82226562 24.68554688 C31.146967 30.00760139 36.39463324 35.31955164 41.27514648 41.05688477 C45.1354261 45.40564138 49.36079804 49.41934403 53.5 53.5 C59.02048016 58.94239699 64.48242257 64.35894995 69.49609375 70.27734375 C71.09012984 72.10323963 72.76985537 73.80325877 74.5 75.5 C97.56465534 98.36099392 97.56465534 98.36099392 98.25 108.8125 C98.18712633 112.66875189 97.51790161 114.96115323 95 118 C91.27991231 121.37132947 86.98663571 121.98837073 82.1015625 121.86328125 C75.30928995 119.97273687 70.65230224 114.04272706 66 109 C64.88044922 107.79923828 64.88044922 107.79923828 63.73828125 106.57421875 C62.33818446 105.030112 60.95332751 103.47208362 59.58203125 101.90234375 C55.4426104 97.24940927 51.13530781 92.7544575 46.84643555 88.23950195 C42.98915575 84.16430749 39.23079521 80.02508063 35.55419922 75.78613281 C33.61238893 73.55454562 31.62088654 71.37073988 29.625 69.1875 C25.75039476 64.89472488 22.0801627 60.46963568 18.44140625 55.9765625 C15.71468704 52.65214644 12.92891112 49.38427776 10.125 46.125 C9.6196875 45.53654297 9.114375 44.94808594 8.59375 44.34179688 C6.56682982 41.98221422 4.53908863 39.62339272 2.50439453 37.27050781 C-15.37066434 16.5855776 -15.37066434 16.5855776 -15.29296875 8.0390625 C-14.83745033 4.86865433 -13.24684343 3.1807598 -11 1 C-7.40123047 -0.79938477 -3.91359195 -0.66386876 0 0 Z " fill="#039747" transform="translate(439,257)"/>
<path d="M0 0 C3.1875 0.3125 3.1875 0.3125 5.35458374 2.01367188 C7.52895327 4.74074781 7.69063173 5.96195323 7.70166016 9.40625 C7.72155502 10.93064697 7.72155502 10.93064697 7.74185181 12.48583984 C7.73680634 13.5836377 7.73176086 14.68143555 7.7265625 15.8125 C7.73835541 16.95799316 7.75014832 18.10348633 7.76229858 19.28369141 C7.79761746 22.96009674 7.80671773 26.63593904 7.8125 30.3125 C7.77393466 59.938729 7.77393466 59.938729 12.375 89.125 C12.69102173 90.46377197 12.69102173 90.46377197 13.01342773 91.82958984 C16.14595963 104.72534773 20.00876306 117.49657776 24.625 129.9375 C26.65144394 135.88581174 27.18077177 142.09336595 26.1875 148.3125 C24.30443687 150.85436072 23.25820989 151.28893004 20.1875 152.3125 C15.83040372 152.80575618 13.79798942 152.70321323 10.0625 150.3125 C-2.84485166 137.91599339 -6.57465131 117.11803852 -9.8125 100.3125 C-9.97234375 99.48476074 -10.1321875 98.65702148 -10.296875 97.80419922 C-10.73604299 95.47632495 -11.15583147 93.14625754 -11.5625 90.8125 C-11.67819336 90.15644775 -11.79388672 89.50039551 -11.91308594 88.82446289 C-13.86459227 76.79363394 -13.99905436 64.59533983 -13.99780273 52.43701172 C-13.99998481 50.07891643 -14.01821583 47.72129425 -14.03710938 45.36328125 C-14.06787269 37.39299289 -13.80091588 29.51009548 -12.98828125 21.578125 C-12.91892868 20.85075134 -12.84957611 20.12337769 -12.77812195 19.3739624 C-11.90797205 11.81673556 -9.61607907 6.50517601 -3.8125 1.3125 C-2.8125 0.3125 -2.8125 0.3125 0 0 Z " fill="#C5373A" transform="translate(405.8125,269.6875)"/>
<path d="M0 0 C2.39698479 0.8093289 4.8194483 1.43456793 7.27563477 2.0378418 C13.43515827 3.69682948 19.13150891 6.10036067 24.96313477 8.6628418 C26.45622309 9.2940002 27.94974153 9.92414172 29.44360352 10.5534668 C49.09766322 18.9318987 49.09766322 18.9318987 51.96313477 24.6628418 C52.10953978 26.30426721 52.18410065 27.9526559 52.21313477 29.6003418 C52.25180664 30.91325195 52.25180664 30.91325195 52.29125977 32.25268555 C51.96313477 34.6628418 51.96313477 34.6628418 50.88500977 36.47924805 C47.7378326 38.41744862 45.61685592 38.09910701 41.96313477 37.6628418 C38.57146838 36.40361538 35.38314307 34.78128976 32.15063477 33.1628418 C19.79315301 27.2730029 7.10500657 23.39336284 -6.03686523 19.6628418 C-8.27524954 19.01476015 -10.51353117 18.36632374 -12.75170898 17.7175293 C-18.8302969 15.96972704 -24.92499039 14.29022329 -31.03686523 12.6628418 C-31.72103516 12.47850586 -32.40520508 12.29416992 -33.11010742 12.10424805 C-41.9833845 9.76637864 -50.91295109 9.02713567 -60.04516602 8.48388672 C-66.38241369 8.05050144 -71.35068526 7.34902177 -76.03686523 2.6628418 C-76.53686523 -0.1496582 -76.53686523 -0.1496582 -76.03686523 -3.3371582 C-60.14115784 -19.2328656 -18.69505643 -6.45761593 0 0 Z " fill="#069849" transform="translate(518.036865234375,244.337158203125)"/>
<path d="M0 0 C2.48754543 2.48754543 2.4994639 3.53103865 2.75 7 C2.6328757 14.06092226 -0.22262286 18.6415461 -3.73266602 24.52612305 C-20.63126281 53.1253306 -30.27479729 86.9277923 -30.0625 120.0625 C-30.05747314 121.41861813 -30.05291234 122.77473808 -30.04882812 124.13085938 C-30.03712079 127.42061994 -30.02072211 130.71028594 -30 134 C-33.46780083 133.39019604 -33.98590536 133.01585647 -36.5 130.1875 C-47.19850146 114.05745164 -46.94453036 90.62581699 -43.40600586 72.26586914 C-38.41492695 48.48712077 -28.85265004 18.50635953 -10 2 C-6.54864348 -0.05090224 -4.02518702 -0.35001626 0 0 Z " fill="#C5373A" transform="translate(383,266)"/>
<path d="M0 0 C1.19367188 0.22816406 2.38734375 0.45632812 3.6171875 0.69140625 C10.79797581 2.25828649 16.75105622 4.75105622 22 10 C21.625 12.625 21.625 12.625 21 15 C18.87530607 15.05510734 16.75017176 15.09328102 14.625 15.125 C13.44164062 15.14820313 12.25828125 15.17140625 11.0390625 15.1953125 C8.11869342 15.14839604 5.54611653 14.70072145 2.7109375 14.015625 C-4.58947637 12.45729678 -11.99621083 12.62797972 -19.42822266 12.62939453 C-21.96717236 12.62505609 -24.50432909 12.58874498 -27.04296875 12.55078125 C-41.20545213 12.4531048 -54.21493838 14.64186294 -67.4375 19.75 C-73.37874208 21.97624268 -78.68130405 23.16453782 -85 22 C-88.4042416 20.19775445 -89.59725901 19.27534646 -90.75 15.625 C-89.51639395 11.30737883 -86.68903723 9.3836856 -83 7 C-58.50123605 -6.22398179 -26.46234248 -5.28127145 0 0 Z " fill="#08994B" transform="translate(528,204)"/>
<path d="M0 0 C2 2 2 2 2.1875 5.5 C1.15531149 11.84222498 -3.3380503 15.91281123 -8 20 C-10.83309504 21.93807927 -13.69589297 23.75509557 -16.62255859 25.54370117 C-35.68951403 37.35474903 -45.35262763 55.9380961 -54 76 C-54.33 76 -54.66 76 -55 76 C-55.99402408 55.23594136 -47.382607 37.41486072 -34 22 C-33.37738281 21.27683594 -32.75476563 20.55367188 -32.11328125 19.80859375 C-25.034179 12.20738851 -10.89316695 -1.21035188 0 0 Z " fill="#C5393C" transform="translate(376,242)"/>
<path d="M0 0 C1.98 0 3.96 0 6 0 C6.06058594 1.28777344 6.12117188 2.57554687 6.18359375 3.90234375 C6.26798247 5.58074159 6.3526313 7.25912636 6.4375 8.9375 C6.47681641 9.78763672 6.51613281 10.63777344 6.55664062 11.51367188 C6.59853516 12.32255859 6.64042969 13.13144531 6.68359375 13.96484375 C6.72025146 14.7137085 6.75690918 15.46257324 6.79467773 16.23413086 C6.81771063 18.02461326 6.81771063 18.02461326 8 19 C9.62579218 19.12281952 11.25677004 19.17782504 12.88696289 19.20532227 C13.92796646 19.22526749 14.96897003 19.24521271 16.04151917 19.26576233 C17.1737944 19.28247482 18.30606964 19.29918732 19.47265625 19.31640625 C20.62543564 19.33718735 21.77821503 19.35796844 22.96592712 19.37937927 C26.66472157 19.44499964 30.36358959 19.50381755 34.0625 19.5625 C36.56315879 19.60567335 39.06381001 19.64928724 41.56445312 19.69335938 C47.70955915 19.80069372 53.8547395 19.90192559 60 20 C60 13.73 60 7.46 60 1 C62.31 1 64.62 1 67 1 C67 7.27 67 13.54 67 20 C70.3128323 19.85985318 73.62514408 19.71316385 76.9375 19.5625 C77.88302734 19.52318359 78.82855469 19.48386719 79.80273438 19.44335938 C80.70185547 19.40146484 81.60097656 19.35957031 82.52734375 19.31640625 C83.77632446 19.26141968 83.77632446 19.26141968 85.05053711 19.20532227 C87.00338858 19.20632897 87.00338858 19.20632897 88 18 C88.23701239 15.14122091 88.42219182 12.30116703 88.5625 9.4375 C88.62727539 8.22803711 88.62727539 8.22803711 88.69335938 6.99414062 C88.79975262 4.99631195 88.90040888 2.9981793 89 1 C90.98 1 92.96 1 95 1 C95.10829314 3.89684158 95.18743954 6.78961019 95.25 9.6875 C95.28351563 10.50412109 95.31703125 11.32074219 95.3515625 12.16210938 C95.41793722 16.26074824 95.34080776 18.43708461 93.171875 22.01953125 C89.91587365 24.98858284 87.27001762 25.12738766 83.03515625 25.1328125 C82.07029297 25.13410156 81.10542969 25.13539063 80.11132812 25.13671875 C79.10521484 25.13285156 78.09910156 25.12898438 77.0625 25.125 C75.55913086 25.13080078 75.55913086 25.13080078 74.02539062 25.13671875 C73.05923828 25.13542969 72.09308594 25.13414062 71.09765625 25.1328125 C70.21601807 25.13168457 69.33437988 25.13055664 68.42602539 25.12939453 C66 25 66 25 63.74389648 24.42919922 C63.16841064 24.28756348 62.5929248 24.14592773 62 24 C61.505 24.495 61.505 24.495 61 25 C59.31198015 25.09353163 57.62004793 25.11744791 55.92944336 25.11352539 C54.84839828 25.11344986 53.76735321 25.11337433 52.65354919 25.11329651 C50.889515 25.10555458 50.889515 25.10555458 49.08984375 25.09765625 C47.89267227 25.0962413 46.69550079 25.09482635 45.46205139 25.09336853 C41.62050934 25.08774979 37.77902457 25.07519411 33.9375 25.0625 C31.34049563 25.05748741 28.74349035 25.05292409 26.14648438 25.04882812 C19.76430321 25.03777427 13.3821557 25.02101792 7 25 C6.55769043 26.67292114 6.55769043 26.67292114 6.10644531 28.37963867 C5 32 5 32 3.296875 33.92578125 C0.17103423 35.38769658 -2.31624492 35.29051265 -5.75 35.1875 C-6.92046875 35.16042969 -8.0909375 35.13335937 -9.296875 35.10546875 C-10.18890625 35.07066406 -11.0809375 35.03585937 -12 35 C-12.33 33.35 -12.66 31.7 -13 30 C-9.04 29.67 -5.08 29.34 -1 29 C-0.67 19.43 -0.34 9.86 0 0 Z " fill="#838385" transform="translate(186,315)"/>
<path d="M0 0 C0.66 0.33 1.32 0.66 2 1 C2 2.65 2 4.3 2 6 C1.14535156 5.98839844 0.29070313 5.97679687 -0.58984375 5.96484375 C-1.69457031 5.95582031 -2.79929687 5.94679688 -3.9375 5.9375 C-5.59072266 5.92009766 -5.59072266 5.92009766 -7.27734375 5.90234375 C-9.91447634 5.68737429 -9.91447634 5.68737429 -11 7 C-11.1245486 8.64230364 -11.17568524 10.29052276 -11.1875 11.9375 C-11.20876953 13.28134766 -11.20876953 13.28134766 -11.23046875 14.65234375 C-11.23194769 17.19114534 -11.23194769 17.19114534 -9 19 C-6.56747339 19.46162427 -6.56747339 19.46162427 -3.875 19.625 C-2.96492188 19.69976562 -2.05484375 19.77453125 -1.1171875 19.8515625 C-0.06917969 19.92503906 -0.06917969 19.92503906 1 20 C1.66 22.31 2.32 24.62 3 27 C9.1055471 27.02464513 15.21106551 27.04283371 21.31665039 27.05493164 C23.39543156 27.05997288 25.47420916 27.06680574 27.55297852 27.07543945 C30.53402586 27.08751422 33.51502649 27.09323024 36.49609375 27.09765625 C37.43150497 27.10281754 38.3669162 27.10797882 39.33067322 27.11329651 C40.19149002 27.11337204 41.05230682 27.11344757 41.93920898 27.11352539 C42.70087875 27.115746 43.46254852 27.11796661 44.24729919 27.12025452 C46.02810605 27.19090955 46.02810605 27.19090955 47 26 C47.23701239 23.14122091 47.42219182 20.30116703 47.5625 17.4375 C47.62727539 16.22803711 47.62727539 16.22803711 47.69335938 14.99414062 C47.79975262 12.99631195 47.90040888 10.9981793 48 9 C49.98 9 51.96 9 54 9 C54.10829314 11.89684158 54.18743954 14.78961019 54.25 17.6875 C54.28351563 18.50412109 54.31703125 19.32074219 54.3515625 20.16210938 C54.41793722 24.26074824 54.34080776 26.43708461 52.171875 30.01953125 C49.07319832 32.84512312 46.55156066 33.12762749 42.51611328 33.19287109 C41.61152374 33.20893402 40.7069342 33.22499695 39.77493286 33.24154663 C35.64830373 33.28608765 31.52183276 33.32704283 27.39501953 33.35009766 C25.21847859 33.36667278 23.04199242 33.39398305 20.86572266 33.43212891 C17.72529916 33.48687329 14.58614875 33.50876613 11.4453125 33.5234375 C10.47433624 33.54610687 9.50335999 33.56877625 8.50296021 33.59213257 C3.87699365 33.57765868 1.68471339 33.49574649 -2.15283203 30.71728516 C-4 28 -4 28 -4 24 C-5.95979427 24.28168297 -7.91782378 24.57566717 -9.875 24.875 C-10.96554688 25.03742188 -12.05609375 25.19984375 -13.1796875 25.3671875 C-16.11932714 25.76256513 -16.11932714 25.76256513 -18 28 C-18.51143715 32.54581389 -18.51143715 32.54581389 -16.9296875 36.6796875 C-14.00352157 38.68180103 -11.3133002 38.52691283 -7.8125 38.6875 C-6.54019531 38.75324219 -5.26789062 38.81898438 -3.95703125 38.88671875 C-2.98121094 38.92410156 -2.00539063 38.96148437 -1 39 C-1.33 40.65 -1.66 42.3 -2 44 C-15.95287688 44.68808708 -15.95287688 44.68808708 -19.75 42.3125 C-23.33847466 38.62434549 -23.87210331 36.15107025 -24.4375 31.0625 C-24.36938996 27.79941004 -23.66420329 26.04449261 -21.625 23.5 C-19 21 -19 21 -17 21 C-17.15726563 20.45085937 -17.31453125 19.90171875 -17.4765625 19.3359375 C-18.69762722 13.88670837 -19.39883974 7.22952035 -16.3125 2.3125 C-12.21682424 -1.8307999 -5.31925049 -0.57328893 0 0 Z " fill="#838485" transform="translate(54,307)"/>
<path d="M0 0 C-2.50220894 2.50220894 -3.71842762 2.38647357 -7.1875 2.8125 C-21.38479138 4.99669867 -33.34684047 10.35401342 -44.75 18.9375 C-45.29350098 19.34444092 -45.83700195 19.75138184 -46.39697266 20.1706543 C-49.14851498 22.30561754 -51.50824541 24.4973191 -53.68359375 27.19921875 C-56.54477676 30.65869298 -58.72410061 31.69548832 -63 33 C-65.72430093 33.21507639 -68.25961227 33.14423093 -71 33 C-71.875 31 -71.875 31 -72 28 C-64.11665005 13.61739971 -49.0280624 4.78633064 -33.91015625 0.02734375 C-22.98499774 -2.87612854 -10.83935936 -3.61311979 0 0 Z " fill="#099A4C" transform="translate(490,179)"/>
<path d="M0 0 C2.866875 -0.103125 5.73375 -0.20625 8.6875 -0.3125 C10.02880981 -0.38078003 10.02880981 -0.38078003 11.3972168 -0.45043945 C15.69446526 -0.52513649 17.49125754 -0.37960014 21.046875 2.2734375 C23.20051439 5.27991809 23.6502335 7.32501881 23.44921875 11.01953125 C23 13 23 13 20.875 16.125 C18.61668161 18.86383796 18.61668161 18.86383796 19.5625 22 C20.56501681 24.092209 21.58746653 26.17493307 22.625 28.25 C24 31 24 31 24 33 C21.69 33 19.38 33 17 33 C16.62488281 32.14535156 16.24976563 31.29070312 15.86328125 30.41015625 C15.35152344 29.30542969 14.83976563 28.20070313 14.3125 27.0625 C13.81363281 25.96035156 13.31476563 24.85820312 12.80078125 23.72265625 C12.20652344 22.82417969 11.61226562 21.92570312 11 21 C9.35 20.67 7.7 20.34 6 20 C6 23.96 6 27.92 6 32 C4.02 32 2.04 32 0 32 C0 21.44 0 10.88 0 0 Z " fill="#828385" transform="translate(147,371)"/>
<path d="M0 0 C0.68449219 0.01417969 1.36898437 0.02835937 2.07421875 0.04296875 C7.06624681 0.19124681 7.06624681 0.19124681 8.25 1.375 C8.5609985 5.95118212 8.52851698 10.5395585 8.5625 15.125 C8.59150391 16.4140625 8.62050781 17.703125 8.65039062 19.03125 C8.65876953 20.27390625 8.66714844 21.5165625 8.67578125 22.796875 C8.69036377 23.93737305 8.70494629 25.07787109 8.7199707 26.25292969 C8.15056332 30.0355695 6.8934914 31.66476775 4.25 34.375 C1.76245214 35.61877393 0.02344699 35.50806235 -2.75 35.5 C-3.636875 35.50257813 -4.52375 35.50515625 -5.4375 35.5078125 C-7.75 35.375 -7.75 35.375 -9.75 34.375 C-9.75 33.055 -9.75 31.735 -9.75 30.375 C-6.45 30.045 -3.15 29.715 0.25 29.375 C0.91 27.725 1.57 26.075 2.25 24.375 C1.65832031 24.42140625 1.06664062 24.4678125 0.45703125 24.515625 C-3.72889146 24.70682539 -6.0824218 24.77832849 -9.75 22.5625 C-12.89497221 19.12268664 -12.9789514 16.00503757 -13.125 11.5 C-13.17398438 10.47132813 -13.22296875 9.44265625 -13.2734375 8.3828125 C-11.97693968 0.93278773 -6.72670978 -0.37586625 0 0 Z " fill="#818284" transform="translate(161.75,315.625)"/>
<path d="M0 0 C1.03350586 0.01450195 1.03350586 0.01450195 2.08789062 0.02929688 C7.14363525 0.14363525 7.14363525 0.14363525 8.3125 1.3125 C8.6508999 5.72112243 8.63763409 10.14256712 8.6875 14.5625 C8.72488281 15.80386719 8.76226562 17.04523438 8.80078125 18.32421875 C8.8889681 27.42706158 8.8889681 27.42706158 6.140625 31.6484375 C2.97903124 33.50871228 1.32262736 33.87776837 -2.3125 33.6875 C-3.25351563 33.65398437 -4.19453125 33.62046875 -5.1640625 33.5859375 C-7.6875 33.3125 -7.6875 33.3125 -10.6875 32.3125 C-10.6875 30.9925 -10.6875 29.6725 -10.6875 28.3125 C-9.83285156 28.26351563 -8.97820312 28.21453125 -8.09765625 28.1640625 C-6.99292969 28.08929688 -5.88820312 28.01453125 -4.75 27.9375 C-3.64785156 27.86789062 -2.54570312 27.79828125 -1.41015625 27.7265625 C-0.51167969 27.58992188 0.38679687 27.45328125 1.3125 27.3125 C1.6425 26.6525 1.9725 25.9925 2.3125 25.3125 C1.095625 25.415625 -0.12125 25.51875 -1.375 25.625 C-5.09020949 25.651349 -5.5586091 25.41945202 -8.625 22.875 C-9.305625 22.029375 -9.98625 21.18375 -10.6875 20.3125 C-11.0175 19.9825 -11.3475 19.6525 -11.6875 19.3125 C-11.86813984 16.85757499 -11.96551743 14.45745751 -12 12 C-12.02900391 11.32259766 -12.05800781 10.64519531 -12.08789062 9.94726562 C-12.12919042 6.69728957 -11.88380776 4.62639312 -10.1484375 1.8515625 C-6.7928119 -0.24703509 -3.82499357 -0.16377232 0 0 Z " fill="#838486" transform="translate(247.6875,378.6875)"/>
<path d="M0 0 C1.98 0 3.96 0 6 0 C6 2.64 6 5.28 6 8 C7.03125 7.896875 8.0625 7.79375 9.125 7.6875 C14.19970101 8.09675008 15.46272683 9.46272683 19 13 C20.39686413 15.79372826 20.28325772 18.19679092 20.375 21.3125 C20.42398438 22.44300781 20.47296875 23.57351563 20.5234375 24.73828125 C20 28 20 28 15 33 C10.05 33 5.1 33 0 33 C0 22.11 0 11.22 0 0 Z " fill="#828385" transform="translate(199,370)"/>
<path d="M0 0 C2.68125 -0.103125 5.3625 -0.20625 8.125 -0.3125 C9.37434326 -0.38078003 9.37434326 -0.38078003 10.64892578 -0.45043945 C14.65850762 -0.52458467 17.29134286 -0.23122528 20.51953125 2.26953125 C23 5 23 5 23.69140625 7.0625 C23.39979211 11.44554888 22.82513878 14.44241783 20 18 C15.43362969 21.04424687 11.43284541 20.12783166 6 20 C6 23.96 6 27.92 6 32 C4.02 32 2.04 32 0 32 C0 21.44 0 10.88 0 0 Z " fill="#808183" transform="translate(30,371)"/>
<path d="M0 0 C3.6578218 2.03993908 5.66946174 3.50419262 8 7 C8.71608932 12.30405693 8.62242963 16.73291112 6.25 21.5625 C3.22476814 24.83983451 1.5312592 25.72777614 -2.8125 26.5 C-6.67100308 25.89474462 -8.77696369 24.89251364 -11.6328125 22.24609375 C-14.61586361 17.34536693 -13.96332729 11.46325338 -13 6 C-10.18231236 0.77596598 -5.62101374 -0.54048209 0 0 Z " fill="#858687" transform="translate(127,378)"/>
<path d="M0 0 C2 2 2 2 2 4.1875 C0.4366385 8.58445422 -2.75850232 12.87925116 -7 15 C-8.40320249 15.11621395 -9.81111542 15.17856784 -11.21875 15.2109375 C-12.06469727 15.23744385 -12.91064453 15.2639502 -13.78222656 15.29125977 C-14.6790918 15.31889404 -15.57595703 15.34652832 -16.5 15.375 C-23.69828846 15.65131478 -30.27448237 16.18590183 -37 19 C-34.67203272 11.91755985 -28.61402623 7.40236962 -22.375 3.625 C-15.06312713 0.10446862 -8.06638486 -0.8323432 0 0 Z " fill="#C63B3E" transform="translate(385,219)"/>
<path d="M0 0 C5.53846154 3.07692308 5.53846154 3.07692308 7 6 C7.13559318 9.00474497 7.04299016 11.99068847 7 15 C2.05 15 -2.9 15 -8 15 C-5.70084415 20.15252316 -5.70084415 20.15252316 -2.30078125 20.70703125 C-1.31464844 20.74183594 -0.32851562 20.77664063 0.6875 20.8125 C1.68136719 20.86019531 2.67523438 20.90789062 3.69921875 20.95703125 C4.45847656 20.97121094 5.21773437 20.98539062 6 21 C5.67 22.65 5.34 24.3 5 26 C-5.88406696 26.6249225 -5.88406696 26.6249225 -10.125 24.25 C-14.03884081 19.55339103 -14.48299846 15.7188955 -14.39453125 9.703125 C-13.77785812 5.4779982 -12.12793255 3.83003421 -9 1 C-5.89046621 -0.5547669 -3.43733239 -0.28644437 0 0 Z " fill="#858587" transform="translate(70,378)"/>
<path d="M0 0 C0.74765625 -0.03738281 1.4953125 -0.07476562 2.265625 -0.11328125 C6.11729291 0.54683165 7.93059927 1.56984514 10.75 4.3125 C11.49782993 7.91794442 11.31518039 11.40030847 11.125 15.0625 C11.09792969 16.04605469 11.07085937 17.02960938 11.04296875 18.04296875 C10.97232587 20.46837423 10.87376119 22.88931945 10.75 25.3125 C5.23286072 26.76104067 -0.76274638 27.73378778 -5.875 24.8125 C-7.94868227 21.0421686 -7.7261505 18.59785449 -7.25 14.3125 C-6.046875 12.578125 -6.046875 12.578125 -4.25 11.3125 C-1.76953125 11.01953125 -1.76953125 11.01953125 0.9375 11.125 C1.83855469 11.15207031 2.73960937 11.17914063 3.66796875 11.20703125 C4.69857422 11.25923828 4.69857422 11.25923828 5.75 11.3125 C5.75 9.6625 5.75 8.0125 5.75 6.3125 C1.79 5.9825 -2.17 5.6525 -6.25 5.3125 C-6.25 3.9925 -6.25 2.6725 -6.25 1.3125 C-3.97885524 0.17692762 -2.52706381 0.08165682 0 0 Z " fill="#838486" transform="translate(182.25,377.6875)"/>
<path d="M0 0 C1.98 0 3.96 0 6 0 C6 2.64 6 5.28 6 8 C7.5778125 7.9071875 7.5778125 7.9071875 9.1875 7.8125 C14.13787213 8.05596092 16.55589048 9.55589048 20 13 C20.22705078 15.06298828 20.22705078 15.06298828 20.1953125 17.5703125 C20.18886719 18.46621094 20.18242187 19.36210937 20.17578125 20.28515625 C20.15902344 21.22230469 20.14226562 22.15945313 20.125 23.125 C20.11597656 24.06988281 20.10695313 25.01476562 20.09765625 25.98828125 C20.07404522 28.32577292 20.04111516 30.66276123 20 33 C18.35 33 16.7 33 15 33 C14.93941406 31.71222656 14.87882812 30.42445313 14.81640625 29.09765625 C14.73201753 27.41925841 14.6473687 25.74087364 14.5625 24.0625 C14.52318359 23.21236328 14.48386719 22.36222656 14.44335938 21.48632812 C14.38051758 20.27299805 14.38051758 20.27299805 14.31640625 19.03515625 C14.27974854 18.2862915 14.24309082 17.53742676 14.20532227 16.76586914 C14.18228937 14.97538674 14.18228937 14.97538674 13 14 C10.69 13.67 8.38 13.34 6 13 C6 19.6 6 26.2 6 33 C4.02 33 2.04 33 0 33 C0 22.11 0 11.22 0 0 Z " fill="#818284" transform="translate(261,370)"/>
<path d="M0 0 C0.10822792 3.06345144 0.18741479 6.1230601 0.25 9.1875 C0.30027344 10.48397461 0.30027344 10.48397461 0.3515625 11.80664062 C0.41588629 16.00376783 0.40085985 18.34443603 -1.83203125 21.99609375 C-4.43156007 24.39890147 -6.67290771 25.77780283 -10 27 C-12.69140625 26.5703125 -12.69140625 26.5703125 -15 26 C-16.06752302 12.03747673 -16.06752302 12.03747673 -13.546875 7.2265625 C-9.58826735 2.75233788 -6.18674213 -0.33441849 0 0 Z " fill="#07994A" transform="translate(408,190)"/>
<path d="M0 0 C1.98 0 3.96 0 6 0 C6.09907258 4.19915307 6.17156173 8.39768252 6.21972656 12.59765625 C6.23980982 14.02551121 6.26708252 15.45328425 6.30175781 16.88085938 C6.35042669 18.93640368 6.37299967 20.99085855 6.390625 23.046875 C6.41157227 24.28276367 6.43251953 25.51865234 6.45410156 26.79199219 C5.91517023 30.59928126 5.03269839 31.71760352 2 34 C-0.78601223 34.92867074 -2.61066089 35.16342217 -5.5 35.1875 C-6.2734375 35.20167969 -7.046875 35.21585937 -7.84375 35.23046875 C-10 35 -10 35 -13 33 C-13 31.68 -13 30.36 -13 29 C-9.04 28.67 -5.08 28.34 -1 28 C-0.67 18.76 -0.34 9.52 0 0 Z " fill="#838486" transform="translate(130,316)"/>
<path d="M0 0 C1.98 0 3.96 0 6 0 C6 1.65 6 3.3 6 5 C8.31 5 10.62 5 13 5 C13 6.32 13 7.64 13 9 C10.69 9 8.38 9 6 9 C6.33 13.95 6.66 18.9 7 24 C8.98 24.33 10.96 24.66 13 25 C13 26.32 13 27.64 13 29 C11.3973218 29.10824843 9.79254252 29.18570645 8.1875 29.25 C7.29417969 29.29640625 6.40085937 29.3428125 5.48046875 29.390625 C3 29 3 29 1.36328125 27.34179688 C-0.34751388 24.40305281 -0.34480283 22.52711836 -0.29296875 19.140625 C-0.28330078 18.02558594 -0.27363281 16.91054688 -0.26367188 15.76171875 C-0.23853516 14.60285156 -0.21339844 13.44398438 -0.1875 12.25 C-0.17396484 11.07566406 -0.16042969 9.90132813 -0.14648438 8.69140625 C-0.1111478 5.79380702 -0.06180979 2.89713573 0 0 Z " fill="#838486" transform="translate(82,374)"/>
<path d="M0 0 C1.98 0 3.96 0 6 0 C6 10.89 6 21.78 6 33 C4.02 33 2.04 33 0 33 C0 22.11 0 11.22 0 0 Z " fill="#7F8082" transform="translate(115,306)"/>
<path d="M0 0 C1.21236328 0.02707031 1.21236328 0.02707031 2.44921875 0.0546875 C3.37154297 0.08949219 3.37154297 0.08949219 4.3125 0.125 C4.3125 1.775 4.3125 3.425 4.3125 5.125 C2.3325 5.125 0.3525 5.125 -1.6875 5.125 C-1.6875 11.725 -1.6875 18.325 -1.6875 25.125 C-3.6675 25.125 -5.6475 25.125 -7.6875 25.125 C-7.7742982 21.33347666 -7.82782207 17.54220704 -7.875 13.75 C-7.90013672 12.66976563 -7.92527344 11.58953125 -7.95117188 10.4765625 C-7.96083984 9.4453125 -7.97050781 8.4140625 -7.98046875 7.3515625 C-8.00403442 5.92191162 -8.00403442 5.92191162 -8.02807617 4.46337891 C-7.91568604 3.69171387 -7.8032959 2.92004883 -7.6875 2.125 C-4.48369983 -0.01086678 -3.66810033 -0.10632175 0 0 Z " fill="#868789" transform="translate(107.6875,377.875)"/>
<path d="M0 0 C1.98 0 3.96 0 6 0 C6 7.92 6 15.84 6 24 C4.02 24 2.04 24 0 24 C0 16.08 0 8.16 0 0 Z " fill="#858688" transform="translate(224,379)"/>
<path d="M0 0 C2.875 0.3125 2.875 0.3125 3.875 1.3125 C3.94771741 3.66563555 3.95870868 6.02083668 3.9375 8.375 C3.92847656 9.66535156 3.91945312 10.95570313 3.91015625 12.28515625 C3.89855469 13.28417969 3.88695312 14.28320312 3.875 15.3125 C-2.8828125 15.5078125 -2.8828125 15.5078125 -5.0625 13.75 C-6.52359421 10.39807799 -6.5129235 7.93311933 -6.125 4.3125 C-4.52207174 0.83948876 -3.84673189 0.38467319 0 0 Z " fill="#F1F1F1" transform="translate(160.125,319.6875)"/>
<path d="M0 0 C0 5.28 0 10.56 0 16 C-6 16 -6 16 -7.875 14.5625 C-9.51918919 10.81740239 -9.75595176 7.0243314 -9 3 C-6.45174019 -0.94373542 -5.22011524 0 0 0 Z " fill="#F6F6F7" transform="translate(250,383)"/>
<path d="M0 0 C6 0 6 0 7.875 1 C9.68690541 4.22116518 9.49763977 7.44740501 9 11 C7.875 14 7.875 14 6 16 C4.02 16 2.04 16 0 16 C0 10.72 0 5.44 0 0 Z " fill="#F6F7F7" transform="translate(205,383)"/>
<path d="M0 0 C3.29714793 0.32971479 4.6226839 0.6226839 7 3 C7.265625 5.3125 7.265625 5.3125 7.25 8 C7.25515625 8.886875 7.2603125 9.77375 7.265625 10.6875 C7 13 7 13 5 15 C2.5 15.25 2.5 15.25 0 15 C-2 13 -2 13 -2.265625 10.46875 C-2.26046875 9.4890625 -2.2553125 8.509375 -2.25 7.5 C-2.25515625 6.5203125 -2.2603125 5.540625 -2.265625 4.53125 C-2 2 -2 2 0 0 Z " fill="#F8F8F8" transform="translate(122,383)"/>
<path d="M0 0 C6.25882353 -0.36108597 6.25882353 -0.36108597 9.4375 1.1875 C11 3 11 3 11.4375 5.5 C11 8 11 8 10 9.8125 C6.76011038 11.73618446 3.7174181 11.18282384 0 11 C0 7.37 0 3.74 0 0 Z " fill="#F0F0F0" transform="translate(36,375)"/>
<path d="M0 0 C6.0546875 -0.1953125 6.0546875 -0.1953125 8 0 C10 2 10 2 10.25 5 C10 8 10 8 8 10 C5.31160615 10.26991906 2.70858064 10.08737357 0 10 C0 6.7 0 3.4 0 0 Z " fill="#F7F7F7" transform="translate(153,376)"/>
<path d="M0 0 C1.134375 0.020625 2.26875 0.04125 3.4375 0.0625 C3.4375 2.0425 3.4375 4.0225 3.4375 6.0625 C1.1275 6.0625 -1.1825 6.0625 -3.5625 6.0625 C-3.94468767 4.40635343 -4.27645102 2.73792976 -4.5625 1.0625 C-3.5625 0.0625 -3.5625 0.0625 0 0 Z " fill="#F2F2F3" transform="translate(184.5625,392.9375)"/>
<path d="M0 0 C1.98 0 3.96 0 6 0 C6 2.31 6 4.62 6 7 C4.02 7 2.04 7 0 7 C0 4.69 0 2.38 0 0 Z " fill="#8F9092" transform="translate(274,344)"/>
<path d="M0 0 C1.4540625 0.0309375 1.4540625 0.0309375 2.9375 0.0625 C3.2675 1.7125 3.5975 3.3625 3.9375 5.0625 C0.9675 5.0625 -2.0025 5.0625 -5.0625 5.0625 C-3.81634615 0.07788462 -3.81634615 0.07788462 0 0 Z " fill="#F1F1F1" transform="translate(67.0625,383.9375)"/>
<path d="M0 0 C2.31 0 4.62 0 7 0 C7.042721 1.66611905 7.04063832 3.33382885 7 5 C6 6 6 6 3.5 6.125 C1 6 1 6 0 5 C-0.04063832 3.33382885 -0.042721 1.66611905 0 0 Z " fill="#8E8E90" transform="translate(101,345)"/>
<path d="M0 0 C1.98 0 3.96 0 6 0 C6 1.98 6 3.96 6 6 C4.02 6 2.04 6 0 6 C0 4.02 0 2.04 0 0 Z " fill="#868688" transform="translate(247,301)"/>
<path d="M0 0 C1.98 0 3.96 0 6 0 C6 1.98 6 3.96 6 6 C4.02 6 2.04 6 0 6 C0 4.02 0 2.04 0 0 Z " fill="#858688" transform="translate(238,301)"/>
<path d="M0 0 C1.98 0 3.96 0 6 0 C6 1.98 6 3.96 6 6 C4.02 6 2.04 6 0 6 C0 4.02 0 2.04 0 0 Z " fill="#868788" transform="translate(43,296)"/>
<path d="M0 0 C1.98 0 3.96 0 6 0 C6 1.65 6 3.3 6 5 C4.02 5 2.04 5 0 5 C0 3.35 0 1.7 0 0 Z " fill="#848587" transform="translate(224,370)"/>
<path d="M0 0 C0 0.33 0 0.66 0 1 C-0.845625 1.20625 -1.69125 1.4125 -2.5625 1.625 C-6.84653389 3.33861355 -9.67242567 5.86932356 -13 9 C-10.91376881 2.17233428 -7.1449644 -0.66464785 0 0 Z " fill="#CF5B5D" transform="translate(409,270)"/>
</svg>
